<svg width="372" height="372" viewBox="0 0 372 372" fill="none" xmlns="http://www.w3.org/2000/svg">
<path d="M105.658 321.907L65.4862 321.973L25.3154 322.154L65.4862 322.336L105.658 322.402L186 322.525L266.343 322.401L306.514 322.335L346.685 322.154L306.514 321.973L266.343 321.908L186 321.783L105.658 321.907Z" fill="#1A2E35"/>
<mask id="mask0_1171_2444" style="mask-type:luminance" maskUnits="userSpaceOnUse" x="0" y="0" width="372" height="372">
<path d="M0 2.09808e-05H372V372H0V2.09808e-05Z" fill="white"/>
</mask>
<g mask="url(#mask0_1171_2444)">
<path d="M310.588 105.077C310.509 102.787 310.653 100.518 310.852 98.2548C311.075 95.993 311.353 93.7365 311.857 91.5015C311.939 93.7915 311.794 96.06 311.593 98.324C311.369 100.585 311.091 102.842 310.588 105.077Z" fill="#1A2E35"/>
</g>
<mask id="mask1_1171_2444" style="mask-type:luminance" maskUnits="userSpaceOnUse" x="0" y="0" width="372" height="372">
<path d="M0 2.09808e-05H372V372H0V2.09808e-05Z" fill="white"/>
</mask>
<g mask="url(#mask1_1171_2444)">
<path d="M306.575 105.858C305.362 103.915 304.353 101.878 303.394 99.8179C302.455 97.7481 301.568 95.6552 300.887 93.4671C302.103 95.4097 303.112 97.4467 304.069 99.5076C305.007 101.578 305.893 103.671 306.575 105.858Z" fill="#1A2E35"/>
</g>
<mask id="mask2_1171_2444" style="mask-type:luminance" maskUnits="userSpaceOnUse" x="0" y="0" width="372" height="372">
<path d="M0 2.09808e-05H372V372H0V2.09808e-05Z" fill="white"/>
</mask>
<g mask="url(#mask2_1171_2444)">
<path d="M303.491 108.541C301.468 107.465 299.576 106.206 297.715 104.901C295.868 103.578 294.053 102.209 292.37 100.654C294.393 101.728 296.285 102.989 298.145 104.295C299.992 105.619 301.807 106.989 303.491 108.541Z" fill="#1A2E35"/>
</g>
<mask id="mask3_1171_2444" style="mask-type:luminance" maskUnits="userSpaceOnUse" x="0" y="0" width="372" height="372">
<path d="M0 2.09808e-05H372V372H0V2.09808e-05Z" fill="white"/>
</mask>
<g mask="url(#mask3_1171_2444)">
<path d="M302.161 112.407C299.872 112.487 297.603 112.343 295.339 112.142C293.078 111.921 290.822 111.642 288.587 111.137C290.876 111.056 293.145 111.201 295.409 111.402C297.67 111.626 299.926 111.904 302.161 112.407Z" fill="#1A2E35"/>
</g>
<mask id="mask4_1171_2444" style="mask-type:luminance" maskUnits="userSpaceOnUse" x="0" y="0" width="372" height="372">
<path d="M0 2.09808e-05H372V372H0V2.09808e-05Z" fill="white"/>
</mask>
<g mask="url(#mask4_1171_2444)">
<path d="M316.589 117.369C318.612 118.445 320.505 119.704 322.365 121.009C324.213 122.332 326.027 123.701 327.71 125.256C325.687 124.182 323.795 122.921 321.935 121.616C320.088 120.291 318.274 118.922 316.589 117.369Z" fill="#1A2E35"/>
</g>
<mask id="mask5_1171_2444" style="mask-type:luminance" maskUnits="userSpaceOnUse" x="0" y="0" width="372" height="372">
<path d="M0 2.09808e-05H372V372H0V2.09808e-05Z" fill="white"/>
</mask>
<g mask="url(#mask5_1171_2444)">
<path d="M317.918 113.503C320.208 113.424 322.477 113.568 324.741 113.767C327.002 113.99 329.259 114.268 331.493 114.773C329.203 114.854 326.935 114.709 324.671 114.508C322.41 114.284 320.154 114.006 317.918 113.503Z" fill="#1A2E35"/>
</g>
<mask id="mask6_1171_2444" style="mask-type:luminance" maskUnits="userSpaceOnUse" x="0" y="0" width="372" height="372">
<path d="M0 2.09808e-05H372V372H0V2.09808e-05Z" fill="white"/>
</mask>
<g mask="url(#mask6_1171_2444)">
<path d="M317.137 109.49C319.08 108.277 321.118 107.267 323.177 106.309C325.247 105.37 327.34 104.483 329.528 103.803C327.585 105.018 325.548 106.027 323.487 106.985C321.417 107.921 319.324 108.808 317.137 109.49Z" fill="#1A2E35"/>
</g>
<mask id="mask7_1171_2444" style="mask-type:luminance" maskUnits="userSpaceOnUse" x="0" y="0" width="372" height="372">
<path d="M0 2.09808e-05H372V372H0V2.09808e-05Z" fill="white"/>
</mask>
<g mask="url(#mask7_1171_2444)">
<path d="M314.454 106.406C315.529 104.383 316.79 102.491 318.094 100.63C319.417 98.7831 320.786 96.9677 322.341 95.2848C321.266 97.3085 320.007 99.2005 318.701 101.06C317.377 102.907 316.007 104.722 314.454 106.406Z" fill="#1A2E35"/>
</g>
<mask id="mask8_1171_2444" style="mask-type:luminance" maskUnits="userSpaceOnUse" x="0" y="0" width="372" height="372">
<path d="M0 2.09808e-05H372V372H0V2.09808e-05Z" fill="white"/>
</mask>
<g mask="url(#mask8_1171_2444)">
<path d="M145.062 274.38C144.236 275.427 74.7749 278.544 71.4656 277.593C71.3384 277.562 71.1866 277.493 71.0066 277.398C66.919 275.484 49.3576 262.224 46.5587 256.633C44.3089 252.14 57.561 227.736 62.1805 223.553C65.2525 220.771 70.9537 219.682 70.9537 219.682C70.9537 219.682 87.045 173.258 96.9617 163.539C99.4504 161.1 142.525 160.146 150.222 163.656C153.516 165.159 161.533 173.347 161.751 174.816L161.748 174.831C161.956 176.971 145.892 273.316 145.062 274.38Z" fill="#2B454E"/>
</g>
<mask id="mask9_1171_2444" style="mask-type:luminance" maskUnits="userSpaceOnUse" x="0" y="0" width="372" height="372">
<path d="M0 2.09808e-05H372V372H0V2.09808e-05Z" fill="white"/>
</mask>
<g mask="url(#mask9_1171_2444)">
<path d="M145.557 274.38C144.731 275.427 75.2693 278.544 71.96 277.593C71.8328 277.562 71.681 277.493 71.501 277.398C78.1538 259.405 109.445 174.961 110.335 174.417C111.205 173.885 152.386 174.12 162.242 174.831C162.451 176.971 146.386 273.316 145.557 274.38Z" fill="#1A2E35"/>
</g>
<mask id="mask10_1171_2444" style="mask-type:luminance" maskUnits="userSpaceOnUse" x="0" y="0" width="372" height="372">
<path d="M0 2.09808e-05H372V372H0V2.09808e-05Z" fill="white"/>
</mask>
<g mask="url(#mask10_1171_2444)">
<path d="M120.047 166.961C119.352 166.308 118.892 156.869 120.167 154.993C121.599 152.884 138.118 153.925 139.092 155.721C140.066 157.517 140.532 166.947 140.035 167.287C139.537 167.627 136.781 167.954 136.412 167.349C136.043 166.744 136.062 158.945 135.771 158.535C135.479 158.125 123.912 157.369 123.514 157.964C123.116 158.56 124.087 166.447 123.622 166.791C123.159 167.136 120.724 167.598 120.047 166.961Z" fill="#2B454E"/>
</g>
<mask id="mask11_1171_2444" style="mask-type:luminance" maskUnits="userSpaceOnUse" x="0" y="0" width="372" height="372">
<path d="M0 2.09808e-05H372V372H0V2.09808e-05Z" fill="white"/>
</mask>
<g mask="url(#mask11_1171_2444)">
<path d="M83.178 215.695L78.0786 213.306L80.8277 207.441L85.9271 209.83L83.178 215.695Z" fill="#DCDCDC"/>
</g>
<mask id="mask12_1171_2444" style="mask-type:luminance" maskUnits="userSpaceOnUse" x="0" y="0" width="372" height="372">
<path d="M0 2.09808e-05H372V372H0V2.09808e-05Z" fill="white"/>
</mask>
<g mask="url(#mask12_1171_2444)">
<path d="M82.5373 221.245L74.2231 217.349L77.3621 210.652L85.6763 214.549L82.5373 221.245Z" fill="#C8C8C8"/>
</g>
<mask id="mask13_1171_2444" style="mask-type:luminance" maskUnits="userSpaceOnUse" x="0" y="0" width="372" height="372">
<path d="M0 2.09808e-05H372V372H0V2.09808e-05Z" fill="white"/>
</mask>
<g mask="url(#mask13_1171_2444)">
<path d="M84.3763 232.219C81.5335 238.285 70.0119 262.866 70.0119 262.866L50.2476 253.603C50.2476 253.603 61.7691 229.021 64.612 222.956C67.4548 216.89 73.4633 213.995 79.5277 216.838C85.601 219.684 87.2192 226.154 84.3763 232.219Z" fill="#D5D5D5"/>
</g>
<mask id="mask14_1171_2444" style="mask-type:luminance" maskUnits="userSpaceOnUse" x="0" y="0" width="372" height="372">
<path d="M0 2.09808e-05H372V372H0V2.09808e-05Z" fill="white"/>
</mask>
<g mask="url(#mask14_1171_2444)">
<g opacity="0.100006">
<mask id="mask15_1171_2444" style="mask-type:luminance" maskUnits="userSpaceOnUse" x="50" y="215" width="36" height="48">
<path d="M50.2476 215.739H85.7354V262.866H50.2476V215.739Z" fill="white"/>
</mask>
<g mask="url(#mask15_1171_2444)">
<path d="M84.3763 232.219C81.5335 238.285 70.0119 262.866 70.0119 262.866L50.2476 253.603C50.2476 253.603 61.7691 229.021 64.612 222.956C67.4548 216.89 73.4633 213.995 79.5277 216.838C85.601 219.684 87.2192 226.154 84.3763 232.219Z" fill="black"/>
</g>
</g>
</g>
<mask id="mask16_1171_2444" style="mask-type:luminance" maskUnits="userSpaceOnUse" x="0" y="0" width="372" height="372">
<path d="M0 2.09808e-05H372V372H0V2.09808e-05Z" fill="white"/>
</mask>
<g mask="url(#mask16_1171_2444)">
<path d="M77.3905 218.629C77.1911 219.053 76.6852 219.236 76.2596 219.038C75.8348 218.838 75.6518 218.332 75.8512 217.907C76.0506 217.482 76.5565 217.299 76.9813 217.498C77.4069 217.697 77.5899 218.204 77.3905 218.629Z" fill="white"/>
</g>
<mask id="mask17_1171_2444" style="mask-type:luminance" maskUnits="userSpaceOnUse" x="0" y="0" width="372" height="372">
<path d="M0 2.09808e-05H372V372H0V2.09808e-05Z" fill="white"/>
</mask>
<g mask="url(#mask17_1171_2444)">
<path d="M83.9584 230.157C83.759 230.582 83.2531 230.765 82.8275 230.566C82.4027 230.367 82.2196 229.861 82.419 229.435C82.6177 229.01 83.1244 228.827 83.5492 229.026C83.974 229.225 84.1578 229.732 83.9584 230.157Z" fill="white"/>
</g>
<mask id="mask18_1171_2444" style="mask-type:luminance" maskUnits="userSpaceOnUse" x="0" y="0" width="372" height="372">
<path d="M0 2.09808e-05H372V372H0V2.09808e-05Z" fill="white"/>
</mask>
<g mask="url(#mask18_1171_2444)">
<path d="M74.851 226.827C74.6516 227.252 74.1456 227.435 73.7201 227.236C73.2953 227.037 73.1122 226.531 73.3116 226.105C73.5103 225.68 74.0169 225.497 74.4418 225.696C74.8666 225.896 75.0503 226.402 74.851 226.827Z" fill="white"/>
</g>
<mask id="mask19_1171_2444" style="mask-type:luminance" maskUnits="userSpaceOnUse" x="0" y="0" width="372" height="372">
<path d="M0 2.09808e-05H372V372H0V2.09808e-05Z" fill="white"/>
</mask>
<g mask="url(#mask19_1171_2444)">
<path d="M72.1706 234.55C71.9712 234.975 71.4645 235.158 71.0397 234.958C70.6149 234.759 70.4318 234.253 70.6305 233.827C70.8299 233.402 71.3358 233.219 71.7614 233.418C72.1862 233.618 72.37 234.124 72.1706 234.55Z" fill="white"/>
</g>
<mask id="mask20_1171_2444" style="mask-type:luminance" maskUnits="userSpaceOnUse" x="0" y="0" width="372" height="372">
<path d="M0 2.09808e-05H372V372H0V2.09808e-05Z" fill="white"/>
</mask>
<g mask="url(#mask20_1171_2444)">
<path d="M60.6088 238.508C60.4094 238.933 59.9035 239.116 59.4779 238.917C59.0531 238.717 58.87 238.212 59.0694 237.786C59.2688 237.361 59.7747 237.178 60.2003 237.377C60.6251 237.576 60.8082 238.083 60.6088 238.508Z" fill="white"/>
</g>
<mask id="mask21_1171_2444" style="mask-type:luminance" maskUnits="userSpaceOnUse" x="0" y="0" width="372" height="372">
<path d="M0 2.09808e-05H372V372H0V2.09808e-05Z" fill="white"/>
</mask>
<g mask="url(#mask21_1171_2444)">
<path d="M63.0458 231.306C62.8464 231.73 62.3405 231.913 61.9149 231.715C61.4901 231.515 61.3071 231.009 61.5064 230.583C61.7058 230.158 62.2118 229.975 62.6373 230.175C63.0621 230.374 63.2452 230.881 63.0458 231.306Z" fill="white"/>
</g>
<mask id="mask22_1171_2444" style="mask-type:luminance" maskUnits="userSpaceOnUse" x="0" y="0" width="372" height="372">
<path d="M0 2.09808e-05H372V372H0V2.09808e-05Z" fill="white"/>
</mask>
<g mask="url(#mask22_1171_2444)">
<path d="M66.639 224.14C66.4396 224.565 65.9337 224.748 65.5082 224.549C65.0833 224.35 64.9003 223.844 65.0997 223.419C65.2991 222.994 65.805 222.811 66.2298 223.009C66.6554 223.209 66.8384 223.715 66.639 224.14Z" fill="white"/>
</g>
<mask id="mask23_1171_2444" style="mask-type:luminance" maskUnits="userSpaceOnUse" x="0" y="0" width="372" height="372">
<path d="M0 2.09808e-05H372V372H0V2.09808e-05Z" fill="white"/>
</mask>
<g mask="url(#mask23_1171_2444)">
<path d="M72.057 221.27C71.8576 221.694 71.3517 221.877 70.9261 221.678C70.5013 221.479 70.3183 220.973 70.5177 220.547C70.7171 220.122 71.223 219.939 71.6478 220.138C72.0734 220.338 72.2564 220.844 72.057 221.27Z" fill="white"/>
</g>
<mask id="mask24_1171_2444" style="mask-type:luminance" maskUnits="userSpaceOnUse" x="0" y="0" width="372" height="372">
<path d="M0 2.09808e-05H372V372H0V2.09808e-05Z" fill="white"/>
</mask>
<g mask="url(#mask24_1171_2444)">
<path d="M69.2479 229.265C69.0485 229.69 68.5426 229.873 68.117 229.675C67.6922 229.475 67.5092 228.969 67.7086 228.544C67.908 228.119 68.4139 227.936 68.8387 228.134C69.2636 228.334 69.4473 228.841 69.2479 229.265Z" fill="white"/>
</g>
<mask id="mask25_1171_2444" style="mask-type:luminance" maskUnits="userSpaceOnUse" x="0" y="0" width="372" height="372">
<path d="M0 2.09808e-05H372V372H0V2.09808e-05Z" fill="white"/>
</mask>
<g mask="url(#mask25_1171_2444)">
<path d="M80.6766 224.487C80.4772 224.913 79.9713 225.096 79.5458 224.897C79.1209 224.697 78.9379 224.191 79.1373 223.766C79.3367 223.341 79.8426 223.158 80.2674 223.357C80.693 223.557 80.876 224.063 80.6766 224.487Z" fill="white"/>
</g>
<mask id="mask26_1171_2444" style="mask-type:luminance" maskUnits="userSpaceOnUse" x="0" y="0" width="372" height="372">
<path d="M0 2.09808e-05H372V372H0V2.09808e-05Z" fill="white"/>
</mask>
<g mask="url(#mask26_1171_2444)">
<path d="M78.1058 232.402C77.9064 232.827 77.4005 233.01 76.975 232.811C76.5501 232.612 76.3671 232.106 76.5665 231.68C76.7659 231.255 77.2718 231.072 77.6966 231.271C78.1222 231.47 78.3052 231.977 78.1058 232.402Z" fill="white"/>
</g>
<mask id="mask27_1171_2444" style="mask-type:luminance" maskUnits="userSpaceOnUse" x="0" y="0" width="372" height="372">
<path d="M0 2.09808e-05H372V372H0V2.09808e-05Z" fill="white"/>
</mask>
<g mask="url(#mask27_1171_2444)">
<path d="M66.3041 236.623C66.1047 237.048 65.5988 237.231 65.1732 237.032C64.7484 236.833 64.5654 236.327 64.7647 235.902C64.9634 235.477 65.4701 235.294 65.8949 235.492C66.3204 235.692 66.5035 236.198 66.3041 236.623Z" fill="white"/>
</g>
<mask id="mask28_1171_2444" style="mask-type:luminance" maskUnits="userSpaceOnUse" x="0" y="0" width="372" height="372">
<path d="M0 2.09808e-05H372V372H0V2.09808e-05Z" fill="white"/>
</mask>
<g mask="url(#mask28_1171_2444)">
<path d="M71.7479 246.592C71.5485 247.017 71.0426 247.2 70.617 247.002C70.1922 246.802 70.0092 246.296 70.2086 245.871C70.408 245.446 70.9139 245.263 71.3387 245.462C71.7643 245.661 71.9473 246.168 71.7479 246.592Z" fill="white"/>
</g>
<mask id="mask29_1171_2444" style="mask-type:luminance" maskUnits="userSpaceOnUse" x="0" y="0" width="372" height="372">
<path d="M0 2.09808e-05H372V372H0V2.09808e-05Z" fill="white"/>
</mask>
<g mask="url(#mask29_1171_2444)">
<path d="M68.9178 252.33C68.7185 252.755 68.2125 252.938 67.787 252.739C67.3621 252.54 67.1791 252.034 67.3785 251.608C67.5772 251.184 68.0838 251 68.5086 251.199C68.9342 251.399 69.1172 251.905 68.9178 252.33Z" fill="white"/>
</g>
<mask id="mask30_1171_2444" style="mask-type:luminance" maskUnits="userSpaceOnUse" x="0" y="0" width="372" height="372">
<path d="M0 2.09808e-05H372V372H0V2.09808e-05Z" fill="white"/>
</mask>
<g mask="url(#mask30_1171_2444)">
<path d="M63.8519 243.056C63.6525 243.481 63.1466 243.664 62.7211 243.465C62.2962 243.265 62.1132 242.76 62.3126 242.334C62.512 241.909 63.0179 241.726 63.4427 241.925C63.8683 242.125 64.0513 242.631 63.8519 243.056Z" fill="white"/>
</g>
<mask id="mask31_1171_2444" style="mask-type:luminance" maskUnits="userSpaceOnUse" x="0" y="0" width="372" height="372">
<path d="M0 2.09808e-05H372V372H0V2.09808e-05Z" fill="white"/>
</mask>
<g mask="url(#mask31_1171_2444)">
<path d="M55.869 250.323C55.6696 250.748 55.1637 250.931 54.7381 250.732C54.3133 250.532 54.1303 250.027 54.3297 249.601C54.5283 249.176 55.035 248.993 55.4598 249.192C55.8846 249.392 56.0684 249.898 55.869 250.323Z" fill="white"/>
</g>
<mask id="mask32_1171_2444" style="mask-type:luminance" maskUnits="userSpaceOnUse" x="0" y="0" width="372" height="372">
<path d="M0 2.09808e-05H372V372H0V2.09808e-05Z" fill="white"/>
</mask>
<g mask="url(#mask32_1171_2444)">
<path d="M69.4598 241.459C69.2605 241.884 68.7545 242.067 68.329 241.868C67.9041 241.668 67.7211 241.163 67.9205 240.738C68.1192 240.312 68.6251 240.129 69.0506 240.328C69.4755 240.528 69.6592 241.034 69.4598 241.459Z" fill="white"/>
</g>
<mask id="mask33_1171_2444" style="mask-type:luminance" maskUnits="userSpaceOnUse" x="0" y="0" width="372" height="372">
<path d="M0 2.09808e-05H372V372H0V2.09808e-05Z" fill="white"/>
</mask>
<g mask="url(#mask33_1171_2444)">
<path d="M66.6244 247.759C66.425 248.183 65.9191 248.366 65.4935 248.168C65.0687 247.968 64.8857 247.462 65.0851 247.037C65.2837 246.612 65.7904 246.429 66.2152 246.628C66.64 246.827 66.8238 247.334 66.6244 247.759Z" fill="white"/>
</g>
<mask id="mask34_1171_2444" style="mask-type:luminance" maskUnits="userSpaceOnUse" x="0" y="0" width="372" height="372">
<path d="M0 2.09808e-05H372V372H0V2.09808e-05Z" fill="white"/>
</mask>
<g mask="url(#mask34_1171_2444)">
<path d="M63.7015 253.994C63.5021 254.419 62.9962 254.602 62.5707 254.403C62.1458 254.204 61.9628 253.698 62.1622 253.272C62.3609 252.847 62.8675 252.664 63.2923 252.863C63.7172 253.063 63.9009 253.569 63.7015 253.994Z" fill="white"/>
</g>
<mask id="mask35_1171_2444" style="mask-type:luminance" maskUnits="userSpaceOnUse" x="0" y="0" width="372" height="372">
<path d="M0 2.09808e-05H372V372H0V2.09808e-05Z" fill="white"/>
</mask>
<g mask="url(#mask35_1171_2444)">
<path d="M66.265 258.717C66.0656 259.141 65.5597 259.324 65.1341 259.126C64.7093 258.926 64.5263 258.42 64.7257 257.995C64.9243 257.57 65.431 257.387 65.8558 257.586C66.2806 257.785 66.4644 258.292 66.265 258.717Z" fill="white"/>
</g>
<mask id="mask36_1171_2444" style="mask-type:luminance" maskUnits="userSpaceOnUse" x="0" y="0" width="372" height="372">
<path d="M0 2.09808e-05H372V372H0V2.09808e-05Z" fill="white"/>
</mask>
<g mask="url(#mask36_1171_2444)">
<path d="M58.5238 244.408C58.3244 244.833 57.8185 245.016 57.3929 244.818C56.9681 244.617 56.7851 244.112 56.9845 243.686C57.1831 243.261 57.6898 243.078 58.1146 243.277C58.5402 243.477 58.7232 243.984 58.5238 244.408Z" fill="white"/>
</g>
<mask id="mask37_1171_2444" style="mask-type:luminance" maskUnits="userSpaceOnUse" x="0" y="0" width="372" height="372">
<path d="M0 2.09808e-05H372V372H0V2.09808e-05Z" fill="white"/>
</mask>
<g mask="url(#mask37_1171_2444)">
<path d="M61.0741 248.983C60.8747 249.408 60.3688 249.591 59.9432 249.393C59.5184 249.193 59.3354 248.687 59.5348 248.262C59.7334 247.837 60.2401 247.654 60.6649 247.853C61.0897 248.052 61.2735 248.559 61.0741 248.983Z" fill="white"/>
</g>
<mask id="mask38_1171_2444" style="mask-type:luminance" maskUnits="userSpaceOnUse" x="0" y="0" width="372" height="372">
<path d="M0 2.09808e-05H372V372H0V2.09808e-05Z" fill="white"/>
</mask>
<g mask="url(#mask38_1171_2444)">
<path d="M71.2841 257.548C71.0847 257.973 70.5787 258.156 70.1532 257.957C69.7284 257.757 69.5453 257.252 69.7447 256.827C69.9441 256.402 70.45 256.219 70.8749 256.417C71.3004 256.617 71.4835 257.123 71.2841 257.548Z" fill="white"/>
</g>
<mask id="mask39_1171_2444" style="mask-type:luminance" maskUnits="userSpaceOnUse" x="0" y="0" width="372" height="372">
<path d="M0 2.09808e-05H372V372H0V2.09808e-05Z" fill="white"/>
</mask>
<g mask="url(#mask39_1171_2444)">
<path d="M58.4125 255.112C58.2131 255.537 57.7072 255.72 57.2816 255.521C56.8568 255.321 56.6738 254.816 56.8731 254.39C57.0725 253.965 57.5785 253.782 58.004 253.981C58.4288 254.181 58.6119 254.687 58.4125 255.112Z" fill="white"/>
</g>
<mask id="mask40_1171_2444" style="mask-type:luminance" maskUnits="userSpaceOnUse" x="0" y="0" width="372" height="372">
<path d="M0 2.09808e-05H372V372H0V2.09808e-05Z" fill="white"/>
</mask>
<g mask="url(#mask40_1171_2444)">
<path d="M77.1547 245.324C76.9553 245.749 76.4494 245.932 76.0238 245.733C75.599 245.534 75.4159 245.028 75.6153 244.602C75.814 244.177 76.3199 243.994 76.7455 244.193C77.1703 244.392 77.3541 244.899 77.1547 245.324Z" fill="white"/>
</g>
<mask id="mask41_1171_2444" style="mask-type:luminance" maskUnits="userSpaceOnUse" x="0" y="0" width="372" height="372">
<path d="M0 2.09808e-05H372V372H0V2.09808e-05Z" fill="white"/>
</mask>
<g mask="url(#mask41_1171_2444)">
<path d="M74.3221 251.367C74.1228 251.792 73.6168 251.975 73.1913 251.776C72.7664 251.576 72.5834 251.071 72.7828 250.645C72.9822 250.22 73.4881 250.037 73.9129 250.236C74.3378 250.435 74.5215 250.942 74.3221 251.367Z" fill="white"/>
</g>
<mask id="mask42_1171_2444" style="mask-type:luminance" maskUnits="userSpaceOnUse" x="0" y="0" width="372" height="372">
<path d="M0 2.09808e-05H372V372H0V2.09808e-05Z" fill="white"/>
</mask>
<g mask="url(#mask42_1171_2444)">
<path d="M74.8705 240.357C74.6711 240.782 74.1652 240.965 73.7396 240.766C73.3148 240.566 73.1318 240.061 73.3312 239.635C73.5298 239.21 74.0365 239.027 74.4613 239.225C74.8861 239.426 75.0699 239.932 74.8705 240.357Z" fill="white"/>
</g>
<mask id="mask43_1171_2444" style="mask-type:luminance" maskUnits="userSpaceOnUse" x="0" y="0" width="372" height="372">
<path d="M0 2.09808e-05H372V372H0V2.09808e-05Z" fill="white"/>
</mask>
<g mask="url(#mask43_1171_2444)">
<path d="M80.8373 238.471C80.6379 238.896 80.132 239.079 79.7064 238.88C79.2816 238.68 79.0986 238.175 79.2979 237.749C79.4966 237.324 80.0033 237.141 80.4281 237.34C80.8537 237.539 81.0367 238.046 80.8373 238.471Z" fill="white"/>
</g>
<mask id="mask44_1171_2444" style="mask-type:luminance" maskUnits="userSpaceOnUse" x="0" y="0" width="372" height="372">
<path d="M0 2.09808e-05H372V372H0V2.09808e-05Z" fill="white"/>
</mask>
<g mask="url(#mask44_1171_2444)">
<path d="M47.9331 254.035C49.6049 262.225 67.7897 271.043 69.027 271.008C70.2635 270.974 82.3379 241.098 82.3379 241.098C82.3379 241.098 67.6275 236.262 60.9858 227.677C60.9858 227.677 47.4116 251.48 47.9331 254.035Z" fill="#375A64"/>
</g>
<mask id="mask45_1171_2444" style="mask-type:luminance" maskUnits="userSpaceOnUse" x="0" y="0" width="372" height="372">
<path d="M0 2.09808e-05H372V372H0V2.09808e-05Z" fill="white"/>
</mask>
<g mask="url(#mask45_1171_2444)">
<path d="M188.302 321.856H117.925C113.638 305.504 109.703 291.049 107.192 281.925C105.617 276.188 104.606 272.549 104.413 271.867C104.388 271.782 104.379 271.748 104.379 271.748H177.561C177.561 271.748 178.395 275.573 179.793 282.009C180.677 286.154 181.807 291.394 183.095 297.383C183.205 297.906 183.323 298.436 183.432 298.984C184.907 305.842 186.566 313.617 188.302 321.856Z" fill="#375A64"/>
</g>
<mask id="mask46_1171_2444" style="mask-type:luminance" maskUnits="userSpaceOnUse" x="0" y="0" width="372" height="372">
<path d="M0 2.09808e-05H372V372H0V2.09808e-05Z" fill="white"/>
</mask>
<g mask="url(#mask46_1171_2444)">
<path d="M128.59 321.856H127.267C123.671 308.588 120.132 295.303 116.729 281.984L116.442 280.863C116.375 280.552 116.83 280.417 116.923 280.72C117.049 281.141 117.175 281.563 117.293 281.984C121.177 295.235 124.909 308.537 128.59 321.856Z" fill="#1A2E35"/>
</g>
<mask id="mask47_1171_2444" style="mask-type:luminance" maskUnits="userSpaceOnUse" x="0" y="0" width="372" height="372">
<path d="M0 2.09808e-05H372V372H0V2.09808e-05Z" fill="white"/>
</mask>
<g mask="url(#mask47_1171_2444)">
<path d="M171.849 271.867C171.563 274.141 170.67 277.822 169.347 282.127C168.53 284.789 167.545 287.67 166.424 290.636C166.188 291.31 165.918 291.967 165.657 292.641C162.111 301.679 157.444 310.887 152.684 315.26C152.676 315.26 152.676 315.26 152.667 315.269H152.65C152.035 315.841 151.429 316.33 150.814 316.708L146.736 319.227C146.736 319.227 146.736 319.253 146.72 319.286V319.295C146.678 319.539 146.534 320.425 146.298 321.856H77.6657C75.9135 305.951 79.5696 291.066 82.7628 281.74C84.852 275.599 86.7469 271.867 86.7469 271.867H171.849Z" fill="#375A64"/>
</g>
<mask id="mask48_1171_2444" style="mask-type:luminance" maskUnits="userSpaceOnUse" x="0" y="0" width="372" height="372">
<path d="M0 2.09808e-05H372V372H0V2.09808e-05Z" fill="white"/>
</mask>
<g mask="url(#mask48_1171_2444)">
<path d="M163.694 311.384C159.407 313.845 154.9 315.799 150.376 317.754C149.163 318.276 147.949 318.789 146.72 319.286H146.711C146.635 319.321 146.559 319.354 146.483 319.379C145.422 319.818 144.361 320.238 143.291 320.652C142.254 321.047 141.219 321.468 140.165 321.856H137.84C139.441 321.047 141.118 320.364 142.743 319.64C145.01 318.629 147.276 317.627 149.55 316.633C150.587 316.186 151.622 315.731 152.65 315.269C152.659 315.269 152.675 315.26 152.684 315.26C156.231 313.685 159.769 312.11 163.416 310.779C163.778 310.643 164.014 311.191 163.694 311.384Z" fill="#1A2E35"/>
</g>
<mask id="mask49_1171_2444" style="mask-type:luminance" maskUnits="userSpaceOnUse" x="0" y="0" width="372" height="372">
<path d="M0 2.09808e-05H372V372H0V2.09808e-05Z" fill="white"/>
</mask>
<g mask="url(#mask49_1171_2444)">
<path d="M146.736 319.337C146.744 319.877 146.694 320.761 146.593 321.856H145.826C146.062 320.828 146.281 319.986 146.483 319.38C146.491 319.354 146.491 319.337 146.508 319.312C146.543 319.211 146.677 319.202 146.711 319.287H146.72V319.295C146.736 319.312 146.736 319.321 146.736 319.337Z" fill="#1A2E35"/>
</g>
<mask id="mask50_1171_2444" style="mask-type:luminance" maskUnits="userSpaceOnUse" x="0" y="0" width="372" height="372">
<path d="M0 2.09808e-05H372V372H0V2.09808e-05Z" fill="white"/>
</mask>
<g mask="url(#mask50_1171_2444)">
<path d="M93.3936 276.146C92.4666 277.999 91.6243 279.886 90.8409 281.815C86.1738 293.407 84.2617 306.162 85.6597 318.613C85.7862 319.699 85.938 320.778 86.1068 321.856H84.8934C84.438 318.705 84.1352 315.555 84.0765 312.37C83.8406 301.857 85.8792 291.403 90.0746 281.799C90.9503 279.793 91.9279 277.831 92.9896 275.918C93.1324 275.657 93.5282 275.884 93.3936 276.146Z" fill="#1A2E35"/>
</g>
<mask id="mask51_1171_2444" style="mask-type:luminance" maskUnits="userSpaceOnUse" x="0" y="0" width="372" height="372">
<path d="M0 2.09808e-05H372V372H0V2.09808e-05Z" fill="white"/>
</mask>
<g mask="url(#mask51_1171_2444)">
<path d="M145.014 300.186C145.08 297.543 145.268 294.9 145.399 292.26C145.707 286.025 145.949 279.753 146.528 273.537C146.55 273.29 146.911 273.295 146.915 273.546C146.993 278.37 146.807 283.208 146.709 288.03C146.661 290.444 146.59 292.857 146.524 295.271C146.46 297.566 146.306 299.892 146.477 302.186C146.607 303.924 146.989 307.304 149.258 307.514C151.395 307.711 153.089 305.405 153.623 303.712C154.979 299.419 155.461 294.78 155.899 290.316C156.159 287.672 156.466 276.906 156.32 274.232C156.311 274.061 156.578 274.068 156.587 274.239C156.735 276.962 157.109 279.671 157.199 282.408C157.29 285.126 157.299 287.855 157.123 290.568C156.954 293.172 156.735 295.79 156.344 298.371C155.991 300.693 155.6 303.099 154.667 305.27C153.88 307.098 152.528 308.781 150.476 309.181C150.217 309.231 149.962 309.254 149.714 309.258C149.689 309.818 149.613 310.381 149.574 310.934C149.512 311.808 149.404 312.677 149.287 313.546C149.172 314.394 148.978 315.246 148.753 316.072C148.529 316.892 148.309 317.754 147.866 318.488C147.791 318.61 147.628 318.538 147.618 318.414C147.553 317.584 147.715 316.742 147.826 315.923C147.942 315.075 148.061 314.215 148.236 313.376C148.408 312.551 148.561 311.722 148.73 310.896C148.844 310.343 148.922 309.773 149.026 309.211C147.711 309.004 146.617 308.138 145.997 306.828C145.036 304.795 144.958 302.393 145.014 300.186Z" fill="#1A2E35"/>
</g>
<mask id="mask52_1171_2444" style="mask-type:luminance" maskUnits="userSpaceOnUse" x="0" y="0" width="372" height="372">
<path d="M0 2.09808e-05H372V372H0V2.09808e-05Z" fill="white"/>
</mask>
<g mask="url(#mask52_1171_2444)">
<path d="M143.745 180.57C152.624 191.69 187.427 231.174 206.77 234.841C219.798 237.311 261.648 216.035 270.82 208.328C274.572 205.173 253.616 173.947 248.528 175.203C242.994 176.569 212.871 196.585 208.958 196.36C205.046 196.135 174.195 178.792 155.476 171.092C144.261 166.478 138.748 174.312 143.745 180.57Z" fill="#C36358"/>
</g>
<mask id="mask53_1171_2444" style="mask-type:luminance" maskUnits="userSpaceOnUse" x="0" y="0" width="372" height="372">
<path d="M0 2.09808e-05H372V372H0V2.09808e-05Z" fill="white"/>
</mask>
<g mask="url(#mask53_1171_2444)">
<path d="M259.324 215.759C267.373 212.656 291.784 195.535 295.838 191.092C299.892 186.648 310.631 173.015 307.544 169.565C304.456 166.114 300.992 169.854 300.992 169.854C300.992 169.854 305.06 162.824 301.192 160.19C298.105 158.087 292.952 163.094 292.952 163.094C292.952 163.094 297.005 155.155 292.833 153.033C289.032 151.1 284.84 157.899 284.84 157.899C284.84 157.899 287.558 150.913 283.538 149.757C278.702 148.365 273.992 160.454 269.149 165.024C268.049 166.062 235.555 182.001 235.555 182.001L259.324 215.759Z" fill="#C36358"/>
</g>
<mask id="mask54_1171_2444" style="mask-type:luminance" maskUnits="userSpaceOnUse" x="0" y="0" width="372" height="372">
<path d="M0 2.09808e-05H372V372H0V2.09808e-05Z" fill="white"/>
</mask>
<g mask="url(#mask54_1171_2444)">
<path d="M284.664 157.542C280.212 166.24 278.118 169.706 270.55 175.269C270.402 175.378 270.531 175.622 270.696 175.523C278.602 170.75 281.383 166.813 285.103 157.688C285.282 157.247 284.87 157.137 284.664 157.542Z" fill="#1A2E35"/>
</g>
<mask id="mask55_1171_2444" style="mask-type:luminance" maskUnits="userSpaceOnUse" x="0" y="0" width="372" height="372">
<path d="M0 2.09808e-05H372V372H0V2.09808e-05Z" fill="white"/>
</mask>
<g mask="url(#mask55_1171_2444)">
<path d="M292.858 163.088C288.434 171.997 285.052 175.366 277.554 181.776C277.447 181.867 277.59 182.056 277.705 181.973C285.586 176.301 289.927 172.643 293.18 163.161C293.326 162.733 293.06 162.681 292.858 163.088Z" fill="#1A2E35"/>
</g>
<mask id="mask56_1171_2444" style="mask-type:luminance" maskUnits="userSpaceOnUse" x="0" y="0" width="372" height="372">
<path d="M0 2.09808e-05H372V372H0V2.09808e-05Z" fill="white"/>
</mask>
<g mask="url(#mask56_1171_2444)">
<path d="M300.62 170.173C295.713 178.49 292.277 182.582 284.2 187.869C284.009 187.994 284.173 188.284 284.376 188.177C293.137 183.586 297.463 178.512 300.856 170.35C301.088 169.793 300.928 169.65 300.62 170.173Z" fill="#1A2E35"/>
</g>
<mask id="mask57_1171_2444" style="mask-type:luminance" maskUnits="userSpaceOnUse" x="0" y="0" width="372" height="372">
<path d="M0 2.09808e-05H372V372H0V2.09808e-05Z" fill="white"/>
</mask>
<g mask="url(#mask57_1171_2444)">
<path d="M333.037 194.735C311.677 200.972 290.655 207.209 270.168 213.446C257.916 185.913 256.104 158.38 247.715 130.847C269.103 124.608 290.153 118.369 310.668 112.13C322.885 139.665 324.667 167.2 333.037 194.735Z" fill="white"/>
</g>
<mask id="mask58_1171_2444" style="mask-type:luminance" maskUnits="userSpaceOnUse" x="0" y="0" width="372" height="372">
<path d="M0 2.09808e-05H372V372H0V2.09808e-05Z" fill="white"/>
</mask>
<g mask="url(#mask58_1171_2444)">
<path d="M333.037 194.735C328.788 180.96 326.188 167.186 323.105 153.412C320.064 139.676 316.541 125.939 310.426 112.203C310.545 112.263 310.662 112.323 310.78 112.382C290.266 118.656 269.214 124.93 247.823 131.204C247.906 131.051 247.989 130.897 248.07 130.744C256.431 158.29 258.187 185.836 270.38 213.382C270.277 213.329 270.173 213.277 270.07 213.225C280.313 210.139 290.687 207.053 301.167 203.967C311.692 200.89 322.324 197.813 333.037 194.735ZM333.037 194.735C322.39 197.895 311.831 201.054 301.384 204.214C290.891 207.366 280.51 210.516 270.268 213.668C270.197 213.69 270.126 213.711 270.056 213.733C270.023 213.659 269.989 213.585 269.957 213.51C257.645 185.991 255.777 158.471 247.361 130.951C247.324 130.832 247.288 130.713 247.25 130.595C247.369 130.56 247.489 130.525 247.607 130.491C268.992 124.287 290.04 118.082 310.555 111.878C310.636 111.853 310.717 111.829 310.797 111.804C310.834 111.888 310.872 111.973 310.909 112.057C317.011 125.856 320.489 139.655 323.485 153.454C326.44 167.214 328.916 180.974 333.037 194.735Z" fill="#1A2E35"/>
</g>
<mask id="mask59_1171_2444" style="mask-type:luminance" maskUnits="userSpaceOnUse" x="0" y="0" width="372" height="372">
<path d="M0 2.09808e-05H372V372H0V2.09808e-05Z" fill="white"/>
</mask>
<g mask="url(#mask59_1171_2444)">
<path d="M257.824 142.881C269.897 139.413 281.904 135.945 293.813 132.478C294.022 133.185 294.227 133.892 294.428 134.599C282.481 138.067 270.44 141.534 258.342 145.002C258.173 144.295 257.999 143.588 257.824 142.881Z" fill="#DCDCDC"/>
</g>
<mask id="mask60_1171_2444" style="mask-type:luminance" maskUnits="userSpaceOnUse" x="0" y="0" width="372" height="372">
<path d="M0 2.09808e-05H372V372H0V2.09808e-05Z" fill="white"/>
</mask>
<g mask="url(#mask60_1171_2444)">
<path d="M259.105 148.234C271.236 144.767 283.32 141.299 295.321 137.832C295.511 138.539 295.698 139.245 295.881 139.953C283.848 143.421 271.739 146.888 259.591 150.355C259.431 149.649 259.27 148.942 259.105 148.234Z" fill="#DCDCDC"/>
</g>
<mask id="mask61_1171_2444" style="mask-type:luminance" maskUnits="userSpaceOnUse" x="0" y="0" width="372" height="372">
<path d="M0 2.09808e-05H372V372H0V2.09808e-05Z" fill="white"/>
</mask>
<g mask="url(#mask61_1171_2444)">
<path d="M260.312 153.588C272.482 150.12 284.623 146.652 296.699 143.185C296.874 143.892 297.046 144.599 297.216 145.306C285.115 148.774 272.956 152.241 260.775 155.709C260.622 155.002 260.468 154.295 260.312 153.588Z" fill="#DCDCDC"/>
</g>
<mask id="mask62_1171_2444" style="mask-type:luminance" maskUnits="userSpaceOnUse" x="0" y="0" width="372" height="372">
<path d="M0 2.09808e-05H372V372H0V2.09808e-05Z" fill="white"/>
</mask>
<g mask="url(#mask62_1171_2444)">
<path d="M261.47 158.941C279.334 153.861 297.171 148.78 314.875 143.7C315.049 144.407 315.219 145.113 315.388 145.82C297.649 150.901 279.791 155.982 261.922 161.062C261.772 160.356 261.621 159.649 261.47 158.941Z" fill="#DCDCDC"/>
</g>
<mask id="mask63_1171_2444" style="mask-type:luminance" maskUnits="userSpaceOnUse" x="0" y="0" width="372" height="372">
<path d="M0 2.09808e-05H372V372H0V2.09808e-05Z" fill="white"/>
</mask>
<g mask="url(#mask63_1171_2444)">
<path d="M262.609 164.295C280.479 159.214 298.359 154.134 316.143 149.053C316.306 149.76 316.466 150.467 316.625 151.174C298.816 156.255 280.925 161.335 263.06 166.416C262.909 165.709 262.759 165.002 262.609 164.295Z" fill="#DCDCDC"/>
</g>
<mask id="mask64_1171_2444" style="mask-type:luminance" maskUnits="userSpaceOnUse" x="0" y="0" width="372" height="372">
<path d="M0 2.09808e-05H372V372H0V2.09808e-05Z" fill="white"/>
</mask>
<g mask="url(#mask64_1171_2444)">
<path d="M263.755 169.648C281.604 164.568 299.502 159.487 317.34 154.406C317.494 155.114 317.648 155.82 317.801 156.527C299.948 161.608 282.052 166.689 264.218 171.77C264.063 171.063 263.909 170.355 263.755 169.648Z" fill="#DCDCDC"/>
</g>
<mask id="mask65_1171_2444" style="mask-type:luminance" maskUnits="userSpaceOnUse" x="0" y="0" width="372" height="372">
<path d="M0 2.09808e-05H372V372H0V2.09808e-05Z" fill="white"/>
</mask>
<g mask="url(#mask65_1171_2444)">
<path d="M264.938 175.002C282.74 169.921 300.628 164.84 318.493 159.76C318.644 160.466 318.795 161.174 318.945 161.881C301.074 166.962 283.198 172.042 265.422 177.123C265.259 176.416 265.098 175.709 264.938 175.002Z" fill="#DCDCDC"/>
</g>
<mask id="mask66_1171_2444" style="mask-type:luminance" maskUnits="userSpaceOnUse" x="0" y="0" width="372" height="372">
<path d="M0 2.09808e-05H372V372H0V2.09808e-05Z" fill="white"/>
</mask>
<g mask="url(#mask66_1171_2444)">
<path d="M266.184 180.355C283.912 175.275 301.764 170.194 319.632 165.113C319.783 165.82 319.933 166.527 320.084 167.234C302.223 172.315 284.393 177.396 266.701 182.476C266.527 181.77 266.354 181.063 266.184 180.355Z" fill="#DCDCDC"/>
</g>
<mask id="mask67_1171_2444" style="mask-type:luminance" maskUnits="userSpaceOnUse" x="0" y="0" width="372" height="372">
<path d="M0 2.09808e-05H372V372H0V2.09808e-05Z" fill="white"/>
</mask>
<g mask="url(#mask67_1171_2444)">
<path d="M267.521 185.709C285.149 180.628 302.938 175.548 320.782 170.467C320.936 171.174 321.091 171.881 321.247 172.588C303.421 177.669 285.663 182.749 268.082 187.83C267.892 187.123 267.705 186.416 267.521 185.709Z" fill="#DCDCDC"/>
</g>
<mask id="mask68_1171_2444" style="mask-type:luminance" maskUnits="userSpaceOnUse" x="0" y="0" width="372" height="372">
<path d="M0 2.09808e-05H372V372H0V2.09808e-05Z" fill="white"/>
</mask>
<g mask="url(#mask68_1171_2444)">
<path d="M268.977 191.063C286.479 185.982 304.179 180.901 321.972 175.82C322.133 176.527 322.297 177.235 322.462 177.942C304.696 183.022 287.038 188.102 269.593 193.184C269.384 192.476 269.179 191.769 268.977 191.063Z" fill="#DCDCDC"/>
</g>
<mask id="mask69_1171_2444" style="mask-type:luminance" maskUnits="userSpaceOnUse" x="0" y="0" width="372" height="372">
<path d="M0 2.09808e-05H372V372H0V2.09808e-05Z" fill="white"/>
</mask>
<g mask="url(#mask69_1171_2444)">
<path d="M270.581 196.416C287.93 191.335 305.515 186.254 323.23 181.174C323.402 181.88 323.576 182.588 323.754 183.295C306.077 188.376 288.544 193.456 271.262 198.537C271.03 197.83 270.803 197.123 270.581 196.416Z" fill="#DCDCDC"/>
</g>
<mask id="mask70_1171_2444" style="mask-type:luminance" maskUnits="userSpaceOnUse" x="0" y="0" width="372" height="372">
<path d="M0 2.09808e-05H372V372H0V2.09808e-05Z" fill="white"/>
</mask>
<g mask="url(#mask70_1171_2444)">
<path d="M272.358 201.769C289.528 196.689 306.973 191.609 324.583 186.527C324.77 187.235 324.959 187.941 325.153 188.648C307.59 193.729 290.209 198.81 273.117 203.891C272.858 203.183 272.605 202.476 272.358 201.769Z" fill="#DCDCDC"/>
</g>
<mask id="mask71_1171_2444" style="mask-type:luminance" maskUnits="userSpaceOnUse" x="0" y="0" width="372" height="372">
<path d="M0 2.09808e-05H372V372H0V2.09808e-05Z" fill="white"/>
</mask>
<g mask="url(#mask71_1171_2444)">
<path d="M299.955 143.521C299.161 137.739 298.191 131.957 296.889 126.175C300.954 130.32 304.848 134.465 308.63 138.61C308.259 138.949 307.889 139.289 307.517 139.629C304.868 136.711 302.166 133.794 299.389 130.877C300.198 135.002 300.86 139.129 301.431 143.255C300.939 143.343 300.447 143.433 299.955 143.521Z" fill="#D5D5D5"/>
</g>
<mask id="mask72_1171_2444" style="mask-type:luminance" maskUnits="userSpaceOnUse" x="0" y="0" width="372" height="372">
<path d="M0 2.09808e-05H372V372H0V2.09808e-05Z" fill="white"/>
</mask>
<g mask="url(#mask72_1171_2444)">
<path d="M298.895 140.513C298.607 140.119 298.319 139.724 298.029 139.329C300.68 137.353 303.306 135.378 305.901 133.401C306.201 133.796 306.5 134.191 306.799 134.585C304.192 136.561 301.554 138.537 298.895 140.513Z" fill="#D5D5D5"/>
</g>
<mask id="mask73_1171_2444" style="mask-type:luminance" maskUnits="userSpaceOnUse" x="0" y="0" width="372" height="372">
<path d="M0 2.09808e-05H372V372H0V2.09808e-05Z" fill="white"/>
</mask>
<g mask="url(#mask73_1171_2444)">
<path d="M296.57 123.908C295.351 124.824 294.253 125.891 293.351 127.111C292.445 128.329 291.761 129.71 291.312 131.159C290.851 132.603 290.63 134.127 290.673 135.631C290.716 137.129 290.994 138.631 291.626 139.922C292.96 142.49 295.349 144.575 298.195 145.071C301.037 145.627 304.083 144.609 306.626 142.927C309.2 141.292 311.326 138.917 312.208 136.082C313.128 133.29 312.786 130.058 311.12 127.599C310.28 126.387 309.069 125.381 307.744 124.624C306.414 123.864 304.925 123.374 303.414 123.238C301.905 123.087 300.372 123.294 298.971 123.85C297.567 124.405 296.291 125.261 295.14 126.274C295.663 125.714 296.214 125.176 296.819 124.699C297.433 124.234 298.089 123.818 298.79 123.477C300.189 122.793 301.784 122.442 303.413 122.49C306.671 122.624 309.974 124.231 312.072 126.93C313.1 128.304 313.7 129.915 313.937 131.555C314.178 133.198 314.044 134.888 313.56 136.485C312.589 139.704 310.185 142.38 307.394 144.165C305.992 145.054 304.472 145.807 302.841 146.24C301.218 146.679 299.486 146.796 297.852 146.453C296.215 146.121 294.715 145.346 293.48 144.297C292.237 143.243 291.254 141.944 290.559 140.445C289.263 137.378 289.501 133.893 290.612 130.906C291.774 127.913 293.919 125.429 296.57 123.908Z" fill="#D5D5D5"/>
</g>
<mask id="mask74_1171_2444" style="mask-type:luminance" maskUnits="userSpaceOnUse" x="0" y="0" width="372" height="372">
<path d="M0 2.09808e-05H372V372H0V2.09808e-05Z" fill="white"/>
</mask>
<g mask="url(#mask74_1171_2444)">
<path d="M304.737 129.471C303.878 128.304 303.006 127.137 302.121 125.97C302.512 125.682 302.902 125.394 303.292 125.106C304.184 126.272 305.062 127.44 305.927 128.606C305.53 128.894 305.134 129.183 304.737 129.471Z" fill="#D5D5D5"/>
</g>
<mask id="mask75_1171_2444" style="mask-type:luminance" maskUnits="userSpaceOnUse" x="0" y="0" width="372" height="372">
<path d="M0 2.09808e-05H372V372H0V2.09808e-05Z" fill="white"/>
</mask>
<g mask="url(#mask75_1171_2444)">
<path d="M302.826 129.092C302.531 128.686 302.236 128.28 301.938 127.874C303.059 127.07 304.174 126.267 305.284 125.463C305.587 125.869 305.889 126.276 306.19 126.682C305.074 127.485 303.954 128.289 302.826 129.092Z" fill="#D5D5D5"/>
</g>
<mask id="mask76_1171_2444" style="mask-type:luminance" maskUnits="userSpaceOnUse" x="0" y="0" width="372" height="372">
<path d="M0 2.09808e-05H372V372H0V2.09808e-05Z" fill="white"/>
</mask>
<g mask="url(#mask76_1171_2444)">
<path d="M235.555 182.001C235.555 182.001 243.464 173.904 247.025 169.875C250.588 165.846 259.077 153.076 263.687 153.383C268.864 153.729 265.128 167.181 258.83 174.415C258.83 174.415 267.2 187.762 261.477 195C260.239 196.566 251.22 201.518 248.976 201.062L235.555 182.001Z" fill="#C36358"/>
</g>
<mask id="mask77_1171_2444" style="mask-type:luminance" maskUnits="userSpaceOnUse" x="0" y="0" width="372" height="372">
<path d="M0 2.09808e-05H372V372H0V2.09808e-05Z" fill="white"/>
</mask>
<g mask="url(#mask77_1171_2444)">
<path d="M258.451 175.38C261.892 180.461 264.289 188.187 261.823 193.786C261.752 193.951 261.974 194.076 262.069 193.92C265.528 188.273 262.841 179.307 259.489 174.954C258.845 174.117 257.56 174.065 258.451 175.38Z" fill="#1A2E35"/>
</g>
<mask id="mask78_1171_2444" style="mask-type:luminance" maskUnits="userSpaceOnUse" x="0" y="0" width="372" height="372">
<path d="M0 2.09808e-05H372V372H0V2.09808e-05Z" fill="white"/>
</mask>
<g mask="url(#mask78_1171_2444)">
<path d="M235.555 182.001L259.324 215.758C259.324 215.758 259.883 222.719 252.796 225.823C245.708 228.927 216.378 239.508 204.767 235.585C193.156 231.661 160.017 203.123 145.724 184.132C131.43 165.141 152.56 168.927 156.579 170.729C160.599 172.53 207.856 194.811 209.539 194.769C211.223 194.727 222.21 186.395 227.381 183.804C232.553 181.214 235.555 182.001 235.555 182.001Z" fill="#D5D5D5"/>
</g>
<mask id="mask79_1171_2444" style="mask-type:luminance" maskUnits="userSpaceOnUse" x="0" y="0" width="372" height="372">
<path d="M0 2.09808e-05H372V372H0V2.09808e-05Z" fill="white"/>
</mask>
<g mask="url(#mask79_1171_2444)">
<g opacity="0.100006">
<mask id="mask80_1171_2444" style="mask-type:luminance" maskUnits="userSpaceOnUse" x="143" y="180" width="79" height="57">
<path d="M143.424 180.797H221.702V236.448H143.424V180.797Z" fill="white"/>
</mask>
<g mask="url(#mask80_1171_2444)">
<path d="M221.701 235.329C215.013 236.556 208.811 236.96 204.774 235.591C193.151 231.659 160.017 203.117 145.723 184.126C144.821 182.924 144.06 181.814 143.423 180.797L221.701 235.329Z" fill="black"/>
</g>
</g>
</g>
<mask id="mask81_1171_2444" style="mask-type:luminance" maskUnits="userSpaceOnUse" x="0" y="0" width="372" height="372">
<path d="M0 2.09808e-05H372V372H0V2.09808e-05Z" fill="white"/>
</mask>
<g mask="url(#mask81_1171_2444)">
<path d="M250.065 222.734C247.888 220.063 246.073 217.09 244.174 214.235C242.302 211.42 240.449 208.594 238.615 205.757C234.914 200.032 231.046 194.346 227.727 188.41C227.649 188.271 227.832 188.148 227.935 188.277C232.221 193.689 235.964 199.535 239.73 205.282C241.62 208.165 243.466 211.075 245.278 214.003C247.022 216.821 248.885 219.641 250.3 222.625C250.367 222.766 250.156 222.843 250.065 222.734Z" fill="#1A2E35"/>
</g>
<mask id="mask82_1171_2444" style="mask-type:luminance" maskUnits="userSpaceOnUse" x="0" y="0" width="372" height="372">
<path d="M0 2.09808e-05H372V372H0V2.09808e-05Z" fill="white"/>
</mask>
<g mask="url(#mask82_1171_2444)">
<g opacity="0.100006">
<mask id="mask83_1171_2444" style="mask-type:luminance" maskUnits="userSpaceOnUse" x="213" y="185" width="30" height="49">
<path d="M213.494 185.963H242.447V233.237H213.494V185.963Z" fill="white"/>
</mask>
<g mask="url(#mask83_1171_2444)">
<path d="M242.447 229.725C241.584 230.015 240.684 230.312 239.761 230.61C239.612 229.614 239.56 228.617 239.56 227.641C239.553 225.76 239.709 223.937 239.687 222.128C239.679 220.328 239.531 218.535 239.166 216.786C238.801 215.046 238.191 213.372 237.373 211.847C237.172 211.459 236.941 211.08 236.726 210.731C236.525 210.396 236.264 210.046 236.019 209.704C235.49 209.027 234.94 208.327 234.367 207.643L230.945 203.484C229.783 202.086 228.638 200.679 227.508 199.243C226.362 197.808 225.283 196.32 224.256 194.765C223.252 193.187 222.292 191.587 221.526 189.735C221.258 189.088 221.041 188.425 220.855 187.77C221.816 187.139 222.761 186.528 223.654 185.963C223.958 186.781 224.293 187.57 224.673 188.314C225.424 189.757 226.406 191.231 227.389 192.673C229.382 195.576 231.481 198.499 233.586 201.453C234.635 202.933 235.714 204.399 236.696 205.969C237.187 206.75 237.678 207.539 238.117 208.394C238.333 208.826 238.549 209.25 238.742 209.726C238.921 210.195 239.077 210.634 239.21 211.095C240.312 214.756 240.475 218.446 240.9 222.054C241.212 224.703 241.711 227.344 242.447 229.725Z" fill="black"/>
</g>
<mask id="mask84_1171_2444" style="mask-type:luminance" maskUnits="userSpaceOnUse" x="213" y="185" width="30" height="49">
<path d="M213.494 185.963H242.447V233.237H213.494V185.963Z" fill="white"/>
</mask>
<g mask="url(#mask84_1171_2444)">
<path d="M233.058 232.634C232.336 232.842 231.615 233.044 230.878 233.237C229.985 230.156 229.933 227.121 229.866 224.123L229.829 219.48C229.822 218.714 229.799 217.956 229.77 217.204C229.732 216.452 229.695 215.7 229.554 215.031C229.524 214.853 229.487 214.718 229.427 214.555L229.241 214.05L229.018 213.558C228.936 213.395 228.84 213.239 228.758 213.074C228.393 212.442 227.932 211.847 227.418 211.296C226.384 210.21 225.134 209.303 223.81 208.521C223.148 208.12 222.463 207.769 221.772 207.413L219.681 206.348C218.29 205.613 216.846 204.801 215.7 203.477C215.418 203.149 215.15 202.785 214.927 202.398C214.815 202.205 214.718 201.996 214.622 201.796L214.391 201.2C214.108 200.405 213.93 199.593 213.788 198.79C213.506 197.183 213.468 195.583 213.506 193.998C213.521 193.529 213.55 193.061 213.588 192.593C214.064 192.288 214.57 191.959 215.098 191.61C215.098 192.407 215.12 193.194 215.165 193.984C215.232 195.501 215.395 196.997 215.671 198.44C215.82 199.162 216.013 199.861 216.251 200.523L216.444 201.014C216.519 201.155 216.571 201.305 216.653 201.453C216.809 201.736 216.973 202.019 217.181 202.294C217.992 203.387 219.123 204.384 220.336 205.314C221.548 206.244 222.865 207.085 224.167 207.941C225.477 208.781 226.801 209.637 227.999 210.694C228.609 211.214 229.174 211.794 229.688 212.442C229.941 212.762 230.171 213.104 230.394 213.461L230.7 214.004C230.796 214.198 230.893 214.422 230.96 214.622C231.25 215.448 231.384 216.236 231.503 217.032C231.63 217.821 231.696 218.61 231.763 219.391C231.89 220.954 231.964 222.501 232.068 224.033C232.165 225.574 232.284 227.099 232.433 228.601C232.567 229.985 232.753 231.354 233.058 232.634Z" fill="black"/>
</g>
</g>
</g>
<mask id="mask85_1171_2444" style="mask-type:luminance" maskUnits="userSpaceOnUse" x="0" y="0" width="372" height="372">
<path d="M0 2.09808e-05H372V372H0V2.09808e-05Z" fill="white"/>
</mask>
<g mask="url(#mask85_1171_2444)">
<path d="M79.2086 286.633C79.2807 286.729 180.816 281.986 181.476 281.358C181.782 281.067 183.098 275.288 181.543 267.263C176.875 243.188 162.897 194.03 150.569 173.225C147.491 168.031 133.61 160.365 123.535 170.2C103.109 190.139 87.0726 240.888 80.7576 268.748C77.6692 282.369 78.7867 286.051 79.2086 286.633Z" fill="#D5D5D5"/>
</g>
<mask id="mask86_1171_2444" style="mask-type:luminance" maskUnits="userSpaceOnUse" x="0" y="0" width="372" height="372">
<path d="M0 2.09808e-05H372V372H0V2.09808e-05Z" fill="white"/>
</mask>
<g mask="url(#mask86_1171_2444)">
<g opacity="0.100006">
<mask id="mask87_1171_2444" style="mask-type:luminance" maskUnits="userSpaceOnUse" x="80" y="240" width="102" height="33">
<path d="M80.9473 240.438H181.09V272.797H80.9473V240.438Z" fill="white"/>
</mask>
<g mask="url(#mask87_1171_2444)">
<path d="M181.09 264.961C180.785 264.968 180.48 264.983 180.182 265.006C177.444 265.214 174.498 265.772 171.596 266.359C165.756 267.55 159.811 268.889 153.822 270.221C150.824 270.883 147.825 271.582 144.738 272.088C143.19 272.334 141.635 272.579 140.021 272.698C139.202 272.75 138.399 272.81 137.521 272.795C136.68 272.765 135.899 272.713 135.088 272.616C128.653 271.924 122.797 269.745 116.882 268.026C110.975 266.3 104.867 265.132 99.4357 265.154C98.0965 265.162 96.6531 265.266 95.2023 265.4C93.7589 265.534 92.3007 265.75 90.835 265.966C87.9111 266.434 84.9574 267.022 82.0112 267.661C81.6541 267.736 81.3044 267.818 80.9473 267.899C81.3044 266.338 81.6987 264.7 82.1154 263.011C84.6598 262.186 87.2415 261.456 89.8976 260.906C91.4451 260.572 93.0149 260.303 94.6145 260.102C95.4181 260.006 96.2216 259.924 97.0325 259.879C97.8286 259.82 98.7214 259.805 99.5621 259.857C102.97 260.006 106.154 261.017 109.07 262.252C112.002 263.473 114.74 264.916 117.567 266.084C120.387 267.26 123.281 268.219 126.242 268.792C129.196 269.373 132.209 269.529 135.133 269.261C135.854 269.209 136.606 269.098 137.298 269.001C137.953 268.896 138.659 268.726 139.359 268.562C140.772 268.182 142.216 267.788 143.652 267.356L152.408 264.76C155.34 263.874 158.301 263.011 161.284 262.2C164.268 261.367 167.303 260.668 170.406 260.095C173.456 259.574 176.529 259.143 179.832 259.157C180.294 261.196 180.71 263.138 181.09 264.961Z" fill="black"/>
</g>
<mask id="mask88_1171_2444" style="mask-type:luminance" maskUnits="userSpaceOnUse" x="80" y="240" width="102" height="33">
<path d="M80.9473 240.438H181.09V272.797H80.9473V240.438Z" fill="white"/>
</mask>
<g mask="url(#mask88_1171_2444)">
<path d="M176.663 246.085C174.565 245.341 172.445 244.739 170.339 244.285C169.119 244.032 167.899 243.876 166.708 243.809L165.823 243.786C165.548 243.809 165.28 243.794 165.005 243.824C164.454 243.883 163.903 243.958 163.338 244.091C161.106 244.635 158.792 245.743 156.553 247.015C154.298 248.296 152.118 249.784 149.931 251.264C147.751 252.744 145.549 254.248 143.109 255.415C141.896 256.01 140.616 256.517 139.277 256.889C138.607 257.075 137.916 257.208 137.224 257.32L136.167 257.431C135.803 257.454 135.386 257.461 135.029 257.431C133.556 257.342 132.231 257.038 130.914 256.695C129.605 256.367 128.333 255.959 127.075 255.542C124.553 254.708 122.091 253.808 119.628 252.952C117.173 252.083 114.71 251.264 112.27 250.505C109.837 249.746 107.389 249.077 105.008 248.719C103.803 248.549 102.732 248.519 101.534 248.645C100.351 248.764 99.1382 249.017 97.9255 249.322C95.5001 249.94 93.0746 250.81 90.679 251.762C88.5511 252.625 86.4307 253.548 84.3252 254.53C84.5558 253.674 84.7939 252.811 85.0394 251.933C86.52 251.026 88.0303 250.17 89.5704 249.359C91.9363 248.116 94.3915 247.015 96.9881 246.131C98.2901 245.713 99.6367 245.341 101.05 245.111C102.449 244.858 104.026 244.806 105.418 244.948C111.072 245.512 116.049 247.506 120.945 249.463L128.206 252.461C129.404 252.96 130.609 253.429 131.8 253.882C132.99 254.315 134.188 254.753 135.319 254.976C135.617 255.043 135.855 255.065 136.152 255.095L137.06 255.132L137.975 255.11C138.288 255.088 138.593 255.05 138.898 255.021C140.133 254.873 141.353 254.545 142.551 254.113C144.931 253.213 147.171 251.859 149.269 250.319C150.318 249.552 151.315 248.705 152.334 247.878L155.37 245.312C157.431 243.63 159.648 241.919 162.475 241.012C163.174 240.781 163.911 240.61 164.662 240.521C165.042 240.468 165.429 240.461 165.808 240.438L166.887 240.468C168.315 240.551 169.692 240.81 171.038 241.123C172.668 241.495 174.23 242.009 175.755 242.597C176.06 243.772 176.365 244.94 176.663 246.085Z" fill="black"/>
</g>
</g>
</g>
<mask id="mask89_1171_2444" style="mask-type:luminance" maskUnits="userSpaceOnUse" x="0" y="0" width="372" height="372">
<path d="M0 2.09808e-05H372V372H0V2.09808e-05Z" fill="white"/>
</mask>
<g mask="url(#mask89_1171_2444)">
<path d="M112.873 172.596C79.7254 186.65 53.9905 198.883 57.7268 211.621C59.194 216.623 67.8445 230.112 78.9628 230.094C87.6974 230.081 103.271 216.078 121.009 191.565C130.175 178.897 133.799 163.723 112.873 172.596Z" fill="#D5D5D5"/>
</g>
<mask id="mask90_1171_2444" style="mask-type:luminance" maskUnits="userSpaceOnUse" x="0" y="0" width="372" height="372">
<path d="M0 2.09808e-05H372V372H0V2.09808e-05Z" fill="white"/>
</mask>
<g mask="url(#mask90_1171_2444)">
<path d="M118.751 198.303C117.336 199.475 115.93 200.67 114.551 201.89C114.845 201.546 115.146 201.21 115.438 200.864C117.809 198.053 120.153 195.218 122.497 192.386C122.546 192.326 122.448 192.251 122.396 192.307C117.935 197.052 113.428 201.757 108.949 206.487C104.485 211.202 92.6549 223.206 89.792 225.56C89.7339 225.608 89.8083 225.707 89.8694 225.66C92.4577 223.637 99.7281 217.552 102.046 215.282C105.55 211.852 108.917 208.313 112.154 204.66C114.533 202.723 116.773 200.622 118.906 198.458C118.988 198.376 118.843 198.226 118.751 198.303Z" fill="#1A2E35"/>
</g>
<mask id="mask91_1171_2444" style="mask-type:luminance" maskUnits="userSpaceOnUse" x="0" y="0" width="372" height="372">
<path d="M0 2.09808e-05H372V372H0V2.09808e-05Z" fill="white"/>
</mask>
<g mask="url(#mask91_1171_2444)">
<path d="M69.5816 222.4C55.0855 216.456 45.6955 172.492 42.1414 142.903C41.4644 137.27 85.9854 131.843 86.0196 137.908C86.2145 172.518 85.4549 228.909 69.5816 222.4Z" fill="#C36358"/>
</g>
<mask id="mask92_1171_2444" style="mask-type:luminance" maskUnits="userSpaceOnUse" x="0" y="0" width="372" height="372">
<path d="M0 2.09808e-05H372V372H0V2.09808e-05Z" fill="white"/>
</mask>
<g mask="url(#mask92_1171_2444)">
<path d="M36.5421 119.84C36.8062 129.279 44.8935 152.916 48.6172 156.772C52.3409 160.627 80.5876 147.135 82.1656 141.865C83.7429 136.595 85.065 105.695 78.8333 98.3454C72.6015 90.9946 36.2683 110.059 36.5421 119.84Z" fill="#C36358"/>
</g>
<mask id="mask93_1171_2444" style="mask-type:luminance" maskUnits="userSpaceOnUse" x="0" y="0" width="372" height="372">
<path d="M0 2.09808e-05H372V372H0V2.09808e-05Z" fill="white"/>
</mask>
<g mask="url(#mask93_1171_2444)">
<path d="M86.1475 111.577C83.6789 115.929 79.9626 110.528 79.9626 110.528C79.9626 110.528 83.4386 119.591 79.1591 123.095C75.0239 126.46 70.7653 119.778 70.4535 119.303C70.6329 119.785 73.6096 128.195 68.9462 131.273C64.0968 134.467 60.9728 127.025 60.7726 126.543C60.7994 127.05 61.0449 133.767 56.97 135.299C49.9675 137.928 48.8679 120.773 44.1561 116.967C44.1561 116.967 36.7987 120.384 36.5413 120.549C36.5413 120.549 35.1574 108.081 40.6452 102.013C43.5386 98.8134 47.0912 100.879 47.0912 100.879C47.0912 100.879 46.0652 95.6723 49.6602 93.1337C51.5098 91.8355 55.2313 93.6382 55.2313 93.6382C55.2313 93.6382 54.5848 89.4353 57.9231 87.3767C60.5822 85.725 63.9019 87.7903 63.9019 87.7903C63.9019 87.7903 65.1533 83.4662 68.418 82.6619C74.9994 81.0244 91.4247 102.252 86.1475 111.577Z" fill="#C36358"/>
</g>
<mask id="mask94_1171_2444" style="mask-type:luminance" maskUnits="userSpaceOnUse" x="0" y="0" width="372" height="372">
<path d="M0 2.09808e-05H372V372H0V2.09808e-05Z" fill="white"/>
</mask>
<g mask="url(#mask94_1171_2444)">
<path d="M64.4772 88.0361C64.4169 87.9699 64.4973 87.8724 64.5702 87.9297C71.6754 93.593 77.7472 101.992 80.1942 110.8C80.2746 111.088 79.8401 111.344 79.6913 111.042C75.4333 102.448 70.9686 95.1599 64.4772 88.0361Z" fill="#1A2E35"/>
</g>
<mask id="mask95_1171_2444" style="mask-type:luminance" maskUnits="userSpaceOnUse" x="0" y="0" width="372" height="372">
<path d="M0 2.09808e-05H372V372H0V2.09808e-05Z" fill="white"/>
</mask>
<g mask="url(#mask95_1171_2444)">
<path d="M55.1924 93.4995C55.1218 93.4221 55.249 93.3038 55.336 93.3752C62.6257 99.2499 69.2042 108.898 70.8298 119.382C70.8856 119.741 70.5754 120.12 70.4794 119.711C68.8701 112.822 61.0686 99.8823 55.1924 93.4995Z" fill="#1A2E35"/>
</g>
<mask id="mask96_1171_2444" style="mask-type:luminance" maskUnits="userSpaceOnUse" x="0" y="0" width="372" height="372">
<path d="M0 2.09808e-05H372V372H0V2.09808e-05Z" fill="white"/>
</mask>
<g mask="url(#mask96_1171_2444)">
<path d="M60.6342 127.314C58.6864 117.322 53.7321 108.959 47.4089 101.103C47.3263 101 47.4796 100.894 47.5718 100.961C51.7122 103.962 55.2209 109.39 57.5935 113.845C59.8657 118.112 61.0598 122.419 60.9839 127.245C60.9802 127.433 60.6759 127.527 60.6342 127.314Z" fill="#1A2E35"/>
</g>
<mask id="mask97_1171_2444" style="mask-type:luminance" maskUnits="userSpaceOnUse" x="0" y="0" width="372" height="372">
<path d="M0 2.09808e-05H372V372H0V2.09808e-05Z" fill="white"/>
</mask>
<g mask="url(#mask97_1171_2444)">
<path d="M79.9627 110.529C80.4605 112.337 80.8213 114.182 80.979 116.03C81.1159 117.857 81.0519 119.788 80.2715 121.332C79.8816 122.089 79.2768 122.691 78.509 122.984C77.7248 123.274 76.8513 123.41 76.0426 123.273C74.411 123.035 72.9907 121.755 72.1329 120.368L69.9738 116.88L70.7885 120.908C71.1448 122.666 71.2736 124.572 71.0385 126.339C70.8086 128.104 70.1107 129.801 68.7626 130.689C67.3728 131.644 65.7114 131.669 64.4474 130.588C63.155 129.573 62.1759 127.897 61.5406 126.278L59.7646 121.753L59.9618 126.589C60.0154 127.899 59.9067 129.306 59.6173 130.599C59.3197 131.888 58.8056 133.144 57.9292 133.948C57.0728 134.74 55.7731 135.07 54.7456 134.634C53.6594 134.191 52.7599 133.087 52.0121 131.962C50.513 129.643 49.4922 126.971 48.3487 124.373C47.7855 123.067 47.2215 121.754 46.5943 120.468C45.9515 119.207 45.2849 117.868 44.1562 116.967C45.1785 117.973 45.6785 119.34 46.2342 120.628C46.7565 121.945 47.2156 123.287 47.6769 124.633C48.6009 127.324 49.5607 130.024 51.0152 132.58C51.7793 133.818 52.652 135.136 54.1921 135.889C55.7872 136.653 57.706 136.171 58.9276 135.058C60.1775 133.927 60.7675 132.407 61.1336 130.959C61.4825 129.48 61.6209 128.029 61.5837 126.498L60.0049 126.809C60.7415 128.728 61.6998 130.52 63.3886 131.934C64.2227 132.625 65.3669 133.114 66.5454 133.098C67.7299 133.088 68.7879 132.668 69.6978 132.044C71.5801 130.736 72.3553 128.51 72.5808 126.538C72.8077 124.506 72.6433 122.546 72.2125 120.567L70.8688 121.107C72.0205 122.832 73.7526 124.198 75.8931 124.444C76.9488 124.555 77.9755 124.336 78.9234 123.927C79.8995 123.503 80.6658 122.651 81.0802 121.724C81.9001 119.828 81.7305 117.832 81.4708 115.972C81.1799 114.095 80.6591 112.274 79.9627 110.529Z" fill="#1A2E35"/>
</g>
<mask id="mask98_1171_2444" style="mask-type:luminance" maskUnits="userSpaceOnUse" x="0" y="0" width="372" height="372">
<path d="M0 2.09808e-05H372V372H0V2.09808e-05Z" fill="white"/>
</mask>
<g mask="url(#mask98_1171_2444)">
<path d="M83.0436 143.887C83.0436 143.887 106.004 101.855 84.5673 101.295C79.3868 101.161 58.6753 109.551 60.1708 113.745C62.1015 119.159 71.3643 117.498 77.0135 115.533C77.0135 115.533 70.2185 127.501 77.1399 134.716C81.4812 139.242 83.0436 143.887 83.0436 143.887Z" fill="#C36358"/>
</g>
<mask id="mask99_1171_2444" style="mask-type:luminance" maskUnits="userSpaceOnUse" x="0" y="0" width="372" height="372">
<path d="M0 2.09808e-05H372V372H0V2.09808e-05Z" fill="white"/>
</mask>
<g mask="url(#mask99_1171_2444)">
<path d="M86.0194 101.272C83.9816 101.108 81.9393 101.496 79.9484 101.927C77.9492 102.368 75.9985 103 74.0804 103.705C70.2533 105.166 66.5132 106.726 62.9286 108.866C62.0373 109.415 61.1542 110.013 60.364 110.875C59.9749 111.302 59.6044 111.841 59.4088 112.472C59.3061 112.786 59.2503 113.068 59.248 113.487C59.2666 113.85 59.3254 114.187 59.4407 114.485C59.8618 115.719 60.7896 116.594 61.7821 117.186C62.8006 117.747 63.8876 118.044 64.9649 118.213C67.1285 118.526 69.2482 118.299 71.2845 117.893C73.3342 117.506 75.3006 116.877 77.2424 116.204L76.4039 115.171C75.6495 116.599 75.096 118.031 74.6362 119.528C74.1824 121.017 73.8676 122.551 73.7248 124.103C73.5939 125.655 73.6824 127.23 74.009 128.746C74.3245 130.265 74.9353 131.713 75.7849 132.98C75.1153 131.608 74.6756 130.149 74.4963 128.663C74.3088 127.176 74.3981 125.676 74.6154 124.207C74.8363 122.736 75.2195 121.29 75.7343 119.894C76.2447 118.507 76.8823 117.121 77.6226 115.896L78.5638 114.337L76.7834 114.863C74.8661 115.428 72.9481 116.007 70.9966 116.308C69.0592 116.629 67.0786 116.842 65.2186 116.538C63.4122 116.262 61.5537 115.415 61.0433 113.934C60.4823 112.672 62.1958 111.249 63.7939 110.222C65.4411 109.146 67.2341 108.224 69.025 107.304C70.8217 106.387 72.6281 105.492 74.4762 104.695C78.1828 103.174 81.9631 101.592 86.0194 101.272Z" fill="#1A2E35"/>
</g>
<mask id="mask100_1171_2444" style="mask-type:luminance" maskUnits="userSpaceOnUse" x="0" y="0" width="372" height="372">
<path d="M0 2.09808e-05H372V372H0V2.09808e-05Z" fill="white"/>
</mask>
<g mask="url(#mask100_1171_2444)">
<path d="M87.8095 146.458L41.5082 156.579C41.5082 156.579 38.4593 165.357 41.1503 174.465C46.2594 191.759 61.5047 228.876 73.8075 228.016C87.1199 227.086 90.3577 180.685 90.1331 157.969C90.0572 150.303 87.8095 146.458 87.8095 146.458Z" fill="#D5D5D5"/>
</g>
<mask id="mask101_1171_2444" style="mask-type:luminance" maskUnits="userSpaceOnUse" x="0" y="0" width="372" height="372">
<path d="M0 2.09808e-05H372V372H0V2.09808e-05Z" fill="white"/>
</mask>
<g mask="url(#mask101_1171_2444)">
<g opacity="0.100006">
<mask id="mask102_1171_2444" style="mask-type:luminance" maskUnits="userSpaceOnUse" x="40" y="164" width="51" height="24">
<path d="M40.7563 164.513H90.1059V187.927H40.7563V164.513Z" fill="white"/>
</mask>
<g mask="url(#mask102_1171_2444)">
<path d="M90.1059 164.513C90.091 165.488 90.0687 166.492 90.0389 167.512C88.9229 168.07 87.7772 168.598 86.6016 169.052C85.7312 169.394 84.8384 169.706 83.9307 169.974C83.4694 170.108 83.0081 170.242 82.5394 170.346C82.0856 170.458 81.5648 170.547 81.0737 170.607C79.0724 170.845 77.1156 170.57 75.2928 170.131C73.47 169.706 71.7291 169.126 69.9658 168.724C68.2099 168.315 66.4318 168.04 64.6536 167.995C62.8755 167.943 61.0973 168.144 59.4233 168.583C59.0067 168.687 58.5826 168.821 58.1883 168.948C57.8163 169.067 57.422 169.238 57.0276 169.401C56.2464 169.759 55.4429 170.131 54.6394 170.525L49.7959 172.891C48.174 173.687 46.5298 174.483 44.8707 175.242C43.8663 175.718 42.8395 176.157 41.7979 176.581C41.5673 175.844 41.3515 175.145 41.1507 174.468C40.9944 173.955 40.8605 173.441 40.7563 172.928C43.2934 171.931 45.8602 170.889 48.4344 169.84C50.1233 169.171 51.7973 168.464 53.5531 167.869C54.4311 167.579 55.309 167.281 56.239 167.058C56.7077 166.946 57.1764 166.835 57.6898 166.76C58.1808 166.693 58.6421 166.649 59.1183 166.626C62.9424 166.403 66.5657 167.102 70.1741 167.527C73.7899 167.958 77.4653 168.04 80.6273 167.504C81.4085 167.37 82.2344 167.169 83.0676 166.946C83.9009 166.73 84.7267 166.463 85.56 166.187C87.0778 165.681 88.5881 165.116 90.1059 164.513Z" fill="black"/>
</g>
<mask id="mask103_1171_2444" style="mask-type:luminance" maskUnits="userSpaceOnUse" x="40" y="164" width="51" height="24">
<path d="M40.7563 164.513H90.1059V187.927H40.7563V164.513Z" fill="white"/>
</mask>
<g mask="url(#mask103_1171_2444)">
<path d="M89.8528 172.638C89.8305 173.173 89.8081 173.709 89.7784 174.252C89.1683 174.766 88.5508 175.264 87.9109 175.748C86.6536 176.7 85.3293 177.578 83.9082 178.352C83.1865 178.724 82.4351 179.066 81.639 179.341C80.8429 179.624 79.9353 179.803 79.1094 179.862C75.754 180.078 72.6664 179.401 69.616 178.739L65.0925 177.697C64.3485 177.526 63.6045 177.37 62.8605 177.221C62.1313 177.087 61.3873 176.946 60.7029 176.923C60.5243 176.916 60.3829 176.923 60.2118 176.938L59.6761 177.005L59.1405 177.109C58.9694 177.146 58.7908 177.206 58.6122 177.251C57.9129 177.459 57.2284 177.764 56.5737 178.136C55.2717 178.887 54.1036 179.892 53.0322 181C52.4891 181.551 51.9906 182.139 51.4773 182.719L49.9595 184.512C48.9254 185.695 47.7945 186.908 46.2395 187.711C46.0907 187.793 45.9345 187.867 45.7708 187.927C45.5401 187.324 45.3169 186.729 45.0938 186.134C45.2053 186.089 45.3244 186.052 45.436 186C46.6859 185.464 47.9209 184.594 49.1039 183.634C50.2943 182.667 51.4177 181.588 52.5486 180.517C53.6795 179.438 54.8178 178.344 56.1273 177.429C56.7745 176.96 57.4665 176.544 58.2105 176.194C58.5899 176.023 58.9768 175.882 59.3711 175.748L59.9737 175.577C60.1821 175.532 60.4276 175.487 60.6359 175.465C61.4989 175.376 62.3025 175.428 63.106 175.495C63.9021 175.562 64.6833 175.673 65.457 175.792C67.0045 176.038 68.5297 176.321 70.0475 176.581C71.5653 176.849 73.0756 177.087 74.571 177.288C76.0665 177.496 77.5619 177.645 78.9755 177.623C79.6972 177.6 80.3296 177.518 81.0141 177.325C81.6911 177.139 82.3681 176.879 83.0452 176.581C84.4067 175.986 85.731 175.242 87.033 174.453C87.9853 173.873 88.9228 173.27 89.8528 172.638Z" fill="black"/>
</g>
</g>
</g>
<mask id="mask104_1171_2444" style="mask-type:luminance" maskUnits="userSpaceOnUse" x="0" y="0" width="372" height="372">
<path d="M0 2.09808e-05H372V372H0V2.09808e-05Z" fill="white"/>
</mask>
<g mask="url(#mask104_1171_2444)">
<path d="M87.2163 158.92C64.3226 165.349 47.756 168.329 44.5694 168.827C44.4839 168.84 44.4489 168.722 44.533 168.696C60.4501 163.816 85.6301 158.768 87.1761 158.641C87.3442 158.628 87.3643 158.879 87.2163 158.92Z" fill="#1A2E35"/>
</g>
<mask id="mask105_1171_2444" style="mask-type:luminance" maskUnits="userSpaceOnUse" x="0" y="0" width="372" height="372">
<path d="M0 2.09808e-05H372V372H0V2.09808e-05Z" fill="white"/>
</mask>
<g mask="url(#mask105_1171_2444)">
<path d="M89.4734 186.445C88.934 190.784 87.6982 197.667 86.696 201.923C86.6336 202.192 86.5681 202.46 86.5041 202.727C86.7764 204.26 86.9423 205.788 86.9312 207.356C86.9185 209.166 86.7704 210.961 86.5874 212.761C86.5792 212.838 86.4624 212.827 86.4676 212.751C86.5993 210.966 86.5577 209.16 86.42 207.376C86.3389 206.31 86.2534 205.239 86.1604 204.171C85.188 208.235 84.1605 212.289 82.895 216.271C82.8704 216.346 82.7662 216.302 82.7819 216.23C83.7386 211.906 84.7594 207.593 85.5555 203.236C86.3441 198.918 88.1692 188.672 88.9295 184.349C89.5314 180.928 89.6423 185.088 89.4734 186.445Z" fill="#1A2E35"/>
</g>
<mask id="mask106_1171_2444" style="mask-type:luminance" maskUnits="userSpaceOnUse" x="0" y="0" width="372" height="372">
<path d="M0 2.09808e-05H372V372H0V2.09808e-05Z" fill="white"/>
</mask>
<g mask="url(#mask106_1171_2444)">
<path d="M131.676 168.374C132.214 169.961 140.987 179.74 148.371 178.671C150.776 178.317 149.436 165.107 149.436 165.107L149.56 164.11L151.285 150.142L131.77 140.265C131.77 140.265 131.458 167.699 131.676 168.374Z" fill="#C36358"/>
</g>
<mask id="mask107_1171_2444" style="mask-type:luminance" maskUnits="userSpaceOnUse" x="0" y="0" width="372" height="372">
<path d="M0 2.09808e-05H372V372H0V2.09808e-05Z" fill="white"/>
</mask>
<g mask="url(#mask107_1171_2444)">
<path d="M151.284 150.146L149.554 164.107L149.435 165.112C149.435 165.112 149.674 167.503 149.77 170.275C139.515 169.757 134.141 162.614 131.615 157.569C131.658 149.649 131.771 140.266 131.771 140.266L151.284 150.146Z" fill="#1A2E35"/>
</g>
<mask id="mask108_1171_2444" style="mask-type:luminance" maskUnits="userSpaceOnUse" x="0" y="0" width="372" height="372">
<path d="M0 2.09808e-05H372V372H0V2.09808e-05Z" fill="white"/>
</mask>
<g mask="url(#mask108_1171_2444)">
<path d="M173.049 126.328C180.172 155.629 163.426 163.205 157.106 164.733C151.369 166.121 131.657 170.118 121.544 141.71C111.433 113.301 122.805 100.726 135.759 96.8576C148.712 92.9888 165.926 97.0265 173.049 126.328Z" fill="#C36358"/>
</g>
<mask id="mask109_1171_2444" style="mask-type:luminance" maskUnits="userSpaceOnUse" x="0" y="0" width="372" height="372">
<path d="M0 2.09808e-05H372V372H0V2.09808e-05Z" fill="white"/>
</mask>
<g mask="url(#mask109_1171_2444)">
<path d="M164.632 127.173C163.921 127.211 163.258 127.127 162.551 127.092C161.753 127.051 161.114 127.101 160.445 126.603C160.086 126.336 160 125.685 160.227 125.312C160.755 124.444 161.745 124.25 162.707 124.259C163.752 124.27 164.555 124.544 165.358 125.21C166.135 125.857 165.571 127.124 164.632 127.173Z" fill="#1A2E35"/>
</g>
<mask id="mask110_1171_2444" style="mask-type:luminance" maskUnits="userSpaceOnUse" x="0" y="0" width="372" height="372">
<path d="M0 2.09808e-05H372V372H0V2.09808e-05Z" fill="white"/>
</mask>
<g mask="url(#mask110_1171_2444)">
<path d="M143.787 131.636C144.471 131.436 145.068 131.139 145.723 130.871C146.464 130.569 147.084 130.405 147.551 129.713C147.8 129.343 147.666 128.699 147.328 128.423C146.543 127.778 145.545 127.922 144.639 128.25C143.657 128.605 142.99 129.13 142.454 130.023C141.933 130.89 142.885 131.9 143.787 131.636Z" fill="#1A2E35"/>
</g>
<mask id="mask111_1171_2444" style="mask-type:luminance" maskUnits="userSpaceOnUse" x="0" y="0" width="372" height="372">
<path d="M0 2.09808e-05H372V372H0V2.09808e-05Z" fill="white"/>
</mask>
<g mask="url(#mask111_1171_2444)">
<path d="M152.609 151.87C153.149 152.296 153.708 152.901 154.455 152.884C155.172 152.867 155.97 152.456 156.594 152.134C156.656 152.101 156.729 152.163 156.694 152.228C156.248 153.069 155.187 153.68 154.222 153.617C153.281 153.555 152.737 152.805 152.423 151.984C152.378 151.87 152.53 151.809 152.609 151.87Z" fill="#1A2E35"/>
</g>
<mask id="mask112_1171_2444" style="mask-type:luminance" maskUnits="userSpaceOnUse" x="0" y="0" width="372" height="372">
<path d="M0 2.09808e-05H372V372H0V2.09808e-05Z" fill="white"/>
</mask>
<g mask="url(#mask112_1171_2444)">
<path d="M160.002 146.997C160.002 146.997 159.163 149.233 157.483 150.435C156.864 150.88 156.149 151.191 155.311 151.206C153.592 151.244 153.131 149.788 153.065 148.449C153.007 147.349 153.231 146.321 153.231 146.321C153.231 146.321 156.192 147.838 160.002 146.997Z" fill="white"/>
</g>
<mask id="mask113_1171_2444" style="mask-type:luminance" maskUnits="userSpaceOnUse" x="0" y="0" width="372" height="372">
<path d="M0 2.09808e-05H372V372H0V2.09808e-05Z" fill="white"/>
</mask>
<g mask="url(#mask113_1171_2444)">
<path d="M158.975 148.896C158.895 149.006 158.806 149.134 158.712 149.249C158.172 149.293 157.622 149.31 157.079 149.231C157.721 149.131 158.358 149.018 158.975 148.896Z" fill="#DCDCDC"/>
</g>
<mask id="mask114_1171_2444" style="mask-type:luminance" maskUnits="userSpaceOnUse" x="0" y="0" width="372" height="372">
<path d="M0 2.09808e-05H372V372H0V2.09808e-05Z" fill="white"/>
</mask>
<g mask="url(#mask114_1171_2444)">
<path d="M155.358 149.109C154.938 149.105 154.521 149.069 154.109 148.969C153.754 148.893 153.418 148.748 153.081 148.602C153.079 148.557 153.071 148.498 153.068 148.453C153.068 148.375 153.055 148.303 153.056 148.226C153.787 148.586 154.567 148.833 155.358 149.109Z" fill="#DCDCDC"/>
</g>
<mask id="mask115_1171_2444" style="mask-type:luminance" maskUnits="userSpaceOnUse" x="0" y="0" width="372" height="372">
<path d="M0 2.09808e-05H372V372H0V2.09808e-05Z" fill="white"/>
</mask>
<g mask="url(#mask115_1171_2444)">
<path d="M159.861 143.143C159.861 143.143 160.781 146.099 161.019 147.526C161.04 147.659 160.706 147.779 160.226 147.889C160.204 147.9 160.193 147.911 160.17 147.899C157.716 148.711 155.034 148.263 153.162 146.46C153.04 146.337 153.196 146.16 153.341 146.227C155.451 147.296 157.589 147.308 159.83 146.973C159.865 146.561 158.078 141.909 158.308 141.909C159.284 141.912 161.025 142.055 161.67 142.105C161.116 140.171 159.271 134.759 158.266 131.236C158.204 131.015 158.536 130.887 158.623 131.082C160.923 136.228 162.043 138.944 163.336 143.082C163.436 143.405 160.472 143.291 159.861 143.143Z" fill="#1A2E35"/>
</g>
<mask id="mask116_1171_2444" style="mask-type:luminance" maskUnits="userSpaceOnUse" x="0" y="0" width="372" height="372">
<path d="M0 2.09808e-05H372V372H0V2.09808e-05Z" fill="white"/>
</mask>
<g mask="url(#mask116_1171_2444)">
<path d="M145.417 137.119C145.428 136.64 145.556 136.13 145.854 135.656C146.152 135.182 146.716 134.872 147.267 134.785C147.836 134.695 148.48 134.956 148.846 135.357C149.212 135.758 149.445 136.211 149.578 136.675C149.665 136.968 149.715 137.266 149.758 137.565C149.836 138.2 149.805 138.838 149.593 139.43C149.561 138.965 149.475 138.515 149.346 138.088C149.228 137.678 149.085 137.298 148.916 136.93C148.558 136.17 148.005 135.569 147.375 135.693C146.703 135.766 146.282 136.372 146.125 137.208C145.966 138.025 145.952 138.917 145.96 139.827C145.585 138.995 145.374 138.08 145.417 137.119Z" fill="#1A2E35"/>
</g>
<mask id="mask117_1171_2444" style="mask-type:luminance" maskUnits="userSpaceOnUse" x="0" y="0" width="372" height="372">
<path d="M0 2.09808e-05H372V372H0V2.09808e-05Z" fill="white"/>
</mask>
<g mask="url(#mask117_1171_2444)">
<path d="M165.68 133.202C165.488 132.763 165.177 132.339 164.723 132.011C164.269 131.685 163.63 131.611 163.087 131.738C162.525 131.868 162.027 132.353 161.839 132.862C161.652 133.372 161.606 133.879 161.658 134.359C161.687 134.664 161.753 134.958 161.826 135.251C161.993 135.868 162.262 136.447 162.682 136.917C162.536 136.474 162.446 136.024 162.405 135.58C162.361 135.155 162.349 134.75 162.367 134.346C162.412 133.507 162.698 132.741 163.328 132.618C163.978 132.433 164.597 132.836 165.057 133.551C165.512 134.248 165.86 135.07 166.197 135.915C166.231 135.002 166.081 134.076 165.68 133.202Z" fill="#1A2E35"/>
</g>
<mask id="mask118_1171_2444" style="mask-type:luminance" maskUnits="userSpaceOnUse" x="0" y="0" width="372" height="372">
<path d="M0 2.09808e-05H372V372H0V2.09808e-05Z" fill="white"/>
</mask>
<g mask="url(#mask118_1171_2444)">
<path d="M118.648 144.349C127.612 144.448 131.644 133.527 129.048 125.085C129.048 125.085 152.972 126.832 152.985 107.707C152.985 107.707 158.138 115.704 168.921 115.35L171.989 122.218C174.383 121.371 176.566 114.297 170.288 109.221C170.288 109.221 169.316 99.7459 161.977 94.4575C154.638 89.1699 147.9 93.3289 147.9 93.3289C147.9 93.3289 142.058 89.0107 133.378 90.6468C124.699 92.2828 121.571 100.47 121.571 100.47C121.571 100.47 109.943 103.412 108.434 111.884C106.926 120.355 111.573 125.7 111.573 125.7C111.573 125.7 108.816 129.155 110.736 136.196C111.97 140.723 115.957 144.319 118.648 144.349Z" fill="#1A2E35"/>
</g>
<mask id="mask119_1171_2444" style="mask-type:luminance" maskUnits="userSpaceOnUse" x="0" y="0" width="372" height="372">
<path d="M0 2.09808e-05H372V372H0V2.09808e-05Z" fill="white"/>
</mask>
<g mask="url(#mask119_1171_2444)">
<path d="M152.359 106.047C152.608 107.593 152.761 109.149 152.686 110.698C152.688 112.246 152.456 113.773 152.091 115.25C151.304 118.188 149.552 120.82 146.998 122.415C144.533 124.209 141.385 124.654 138.378 125.128C136.836 125.174 135.286 125.328 133.733 125.285C132.179 125.22 130.623 125.119 129.048 125.085C130.587 125.366 132.144 125.576 133.703 125.825C135.268 125.977 136.855 125.918 138.44 125.974C141.566 125.661 144.86 125.201 147.603 123.334C150.331 121.532 152.268 118.602 152.911 115.447C153.546 112.293 153.298 109.037 152.359 106.047Z" fill="#1A2E35"/>
</g>
<mask id="mask120_1171_2444" style="mask-type:luminance" maskUnits="userSpaceOnUse" x="0" y="0" width="372" height="372">
<path d="M0 2.09808e-05H372V372H0V2.09808e-05Z" fill="white"/>
</mask>
<g mask="url(#mask120_1171_2444)">
<path d="M147.9 93.3288C150.122 92.3891 152.454 91.759 154.796 91.5685C157.133 91.384 159.494 91.6935 161.582 92.6592C163.672 93.6212 165.417 95.2335 166.811 97.1247C168.184 99.0345 169.248 101.199 170.028 103.482C169.69 101.08 168.803 98.7541 167.512 96.65C166.22 94.5467 164.34 92.7403 162.043 91.6593C159.739 90.6199 157.137 90.3297 154.7 90.73C152.258 91.1095 149.918 91.9837 147.9 93.3288Z" fill="#1A2E35"/>
</g>
<mask id="mask121_1171_2444" style="mask-type:luminance" maskUnits="userSpaceOnUse" x="0" y="0" width="372" height="372">
<path d="M0 2.09808e-05H372V372H0V2.09808e-05Z" fill="white"/>
</mask>
<g mask="url(#mask121_1171_2444)">
<path d="M165.246 116.338C162.547 115.532 160.008 114.462 157.817 112.886C156.698 112.131 155.744 111.177 154.866 110.152C153.955 109.135 153.346 107.906 152.658 106.663C152.909 108.045 153.355 109.452 154.181 110.65C154.955 111.874 155.988 112.948 157.176 113.781C158.365 114.611 159.666 115.276 161.039 115.693C162.408 116.115 163.824 116.387 165.246 116.338Z" fill="#1A2E35"/>
</g>
<mask id="mask122_1171_2444" style="mask-type:luminance" maskUnits="userSpaceOnUse" x="0" y="0" width="372" height="372">
<path d="M0 2.09808e-05H372V372H0V2.09808e-05Z" fill="white"/>
</mask>
<g mask="url(#mask122_1171_2444)">
<path d="M145.011 128.654C144.27 128.706 143.523 128.85 142.786 129.094C138.01 130.672 135.41 135.843 136.986 140.62C138.566 145.395 143.74 148.001 148.512 146.418C153.289 144.838 155.889 139.668 154.312 134.892C152.976 130.854 149.072 128.369 145.011 128.654ZM146.386 148.263C141.699 148.591 137.191 145.725 135.65 141.062C133.828 135.547 136.831 129.58 142.344 127.757C147.859 125.933 153.825 128.936 155.649 134.45V134.451C157.47 139.963 154.468 145.931 148.955 147.755C148.103 148.036 147.242 148.203 146.386 148.263Z" fill="#D5D5D5"/>
</g>
<mask id="mask123_1171_2444" style="mask-type:luminance" maskUnits="userSpaceOnUse" x="0" y="0" width="372" height="372">
<path d="M0 2.09808e-05H372V372H0V2.09808e-05Z" fill="white"/>
</mask>
<g mask="url(#mask123_1171_2444)">
<path d="M166.762 124.242C166.585 124.255 166.408 124.277 166.232 124.31C164.587 124.621 163.195 125.82 162.313 127.684C161.397 129.625 161.145 132.035 161.604 134.47C162.541 139.412 166.125 142.903 169.621 142.238C173.106 141.579 175.18 137.022 174.248 132.079C173.786 129.645 172.672 127.494 171.11 126.021C169.77 124.757 168.246 124.138 166.762 124.242ZM169.199 143.71C165.179 143.992 161.244 140.13 160.222 134.732C159.707 132.007 159.998 129.29 161.042 127.083C162.118 124.8 163.869 123.323 165.97 122.926C168.078 122.523 170.239 123.264 172.077 124.996C173.854 126.672 175.116 129.093 175.63 131.817C176.707 137.523 174.13 142.818 169.884 143.622C169.656 143.665 169.428 143.694 169.199 143.71Z" fill="#D5D5D5"/>
</g>
<mask id="mask124_1171_2444" style="mask-type:luminance" maskUnits="userSpaceOnUse" x="0" y="0" width="372" height="372">
<path d="M0 2.09808e-05H372V372H0V2.09808e-05Z" fill="white"/>
</mask>
<g mask="url(#mask124_1171_2444)">
<path d="M155.63 135.692L154.711 134.939C155.824 133.579 158.601 131.506 161.163 133.383L160.461 134.34C158.169 132.655 155.732 135.568 155.63 135.692Z" fill="#D5D5D5"/>
</g>
<mask id="mask125_1171_2444" style="mask-type:luminance" maskUnits="userSpaceOnUse" x="0" y="0" width="372" height="372">
<path d="M0 2.09808e-05H372V372H0V2.09808e-05Z" fill="white"/>
</mask>
<g mask="url(#mask125_1171_2444)">
<path d="M113.952 145.913L112.814 145.574C112.974 145.044 114.435 140.365 116.96 139.45C119.321 138.601 135.232 137.11 135.908 137.048L136.017 138.23C131.455 138.653 119.187 139.906 117.365 140.566C115.698 141.17 114.337 144.631 113.952 145.913Z" fill="#D5D5D5"/>
</g>
<mask id="mask126_1171_2444" style="mask-type:luminance" maskUnits="userSpaceOnUse" x="0" y="0" width="372" height="372">
<path d="M0 2.09808e-05H372V372H0V2.09808e-05Z" fill="white"/>
</mask>
<g mask="url(#mask126_1171_2444)">
<path d="M127.769 143.058C127.769 143.058 119.839 134.75 115.973 137.716C112.106 140.683 119.063 153.421 124.302 154.507C129.54 155.593 130.641 150.763 130.641 150.763L127.769 143.058Z" fill="#C36358"/>
</g>
<mask id="mask127_1171_2444" style="mask-type:luminance" maskUnits="userSpaceOnUse" x="0" y="0" width="372" height="372">
<path d="M0 2.09808e-05H372V372H0V2.09808e-05Z" fill="white"/>
</mask>
<g mask="url(#mask127_1171_2444)">
<path d="M118.058 141.318C117.977 141.323 117.979 141.437 118.052 141.455C121.743 142.331 124.066 145.273 125.859 148.417C124.628 147.29 123.113 146.801 121.578 148.295C121.498 148.373 121.607 148.502 121.7 148.466C123.078 147.943 124.143 148.033 125.279 149.025C126.083 149.729 126.705 150.678 127.335 151.536C127.545 151.821 128.081 151.569 127.908 151.23C127.895 151.205 127.88 151.178 127.867 151.153C127.277 146.709 122.883 141.036 118.058 141.318Z" fill="#1A2E35"/>
</g>
<mask id="mask128_1171_2444" style="mask-type:luminance" maskUnits="userSpaceOnUse" x="0" y="0" width="372" height="372">
<path d="M0 2.09808e-05H372V372H0V2.09808e-05Z" fill="white"/>
</mask>
<g mask="url(#mask128_1171_2444)">
<path d="M119.498 170.394C118.282 168.885 126.127 164.435 128.172 166.12C130.216 167.805 140.525 193.979 137.176 222.378C133.828 250.776 78.8392 281.355 76.8185 277.11C75.9703 275.328 77.0558 270.348 78.3928 268.756C80.2796 266.509 119.968 241.882 123.888 224.272C127.376 208.613 122.598 174.242 119.498 170.394Z" fill="#375A64"/>
</g>
<mask id="mask129_1171_2444" style="mask-type:luminance" maskUnits="userSpaceOnUse" x="0" y="0" width="372" height="372">
<path d="M0 2.09808e-05H372V372H0V2.09808e-05Z" fill="white"/>
</mask>
<g mask="url(#mask129_1171_2444)">
<path d="M150.444 169.783C148.794 166.649 157.294 169.171 158.227 170.856C159.162 172.542 170.529 199.679 172.486 217.417C173.271 224.521 176.026 243.65 176.026 243.65C176.026 243.65 167.717 217.969 160.876 196.503C156.504 182.785 151.123 171.073 150.444 169.783Z" fill="#375A64"/>
</g>
<path d="M289.901 322.154H204.415V312.038H289.901V322.154Z" fill="#2B454E"/>
<path d="M224.67 322.154H221.185V312.038H224.67V322.154Z" fill="#375A64"/>
<path d="M279.842 322.154H271.489V312.038H279.842V322.154Z" fill="#375A64"/>
<path d="M283.743 295.826H196.43V282.459H283.743V295.826Z" fill="#2B454E"/>
<path d="M268.296 291.49H247.325V286.795H268.296V291.49Z" fill="#FF6B6B"/>
<mask id="mask130_1171_2444" style="mask-type:luminance" maskUnits="userSpaceOnUse" x="0" y="0" width="372" height="372">
<path d="M0 2.09808e-05H372V372H0V2.09808e-05Z" fill="white"/>
</mask>
<g mask="url(#mask130_1171_2444)">
<path d="M278.813 289.143C278.813 290.577 277.574 291.738 276.045 291.738C274.517 291.738 273.277 290.577 273.277 289.143C273.277 287.709 274.517 286.547 276.045 286.547C277.574 286.547 278.813 287.709 278.813 289.143Z" fill="#FF6B6B"/>
</g>
<mask id="mask131_1171_2444" style="mask-type:luminance" maskUnits="userSpaceOnUse" x="0" y="0" width="372" height="372">
<path d="M0 2.09808e-05H372V372H0V2.09808e-05Z" fill="white"/>
</mask>
<g mask="url(#mask131_1171_2444)">
<path d="M236.332 282.431H192.222V270.631H236.332V282.431Z" fill="#1A2E35"/>
</g>
<mask id="mask132_1171_2444" style="mask-type:luminance" maskUnits="userSpaceOnUse" x="0" y="0" width="372" height="372">
<path d="M0 2.09808e-05H372V372H0V2.09808e-05Z" fill="white"/>
</mask>
<g mask="url(#mask132_1171_2444)">
<path d="M277.106 282.431H236.332V270.631H277.106V282.431Z" fill="#1A2E35"/>
</g>
<mask id="mask133_1171_2444" style="mask-type:luminance" maskUnits="userSpaceOnUse" x="0" y="0" width="372" height="372">
<path d="M0 2.09808e-05H372V372H0V2.09808e-05Z" fill="white"/>
</mask>
<g mask="url(#mask133_1171_2444)">
<path d="M236.332 281.207H192.222V271.855H236.332V281.207Z" fill="white"/>
</g>
<mask id="mask134_1171_2444" style="mask-type:luminance" maskUnits="userSpaceOnUse" x="0" y="0" width="372" height="372">
<path d="M0 2.09808e-05H372V372H0V2.09808e-05Z" fill="white"/>
</mask>
<g mask="url(#mask134_1171_2444)">
<path d="M196.06 273.779C200.682 273.714 205.304 273.667 209.926 273.643L216.196 273.602L230.062 273.642C234.683 273.667 231.71 273.713 236.332 273.779C231.71 273.845 234.683 273.892 230.062 273.917L216.196 273.957L209.926 273.916C205.304 273.891 200.682 273.844 196.06 273.779Z" fill="#DCDCDC"/>
</g>
<mask id="mask135_1171_2444" style="mask-type:luminance" maskUnits="userSpaceOnUse" x="0" y="0" width="372" height="372">
<path d="M0 2.09808e-05H372V372H0V2.09808e-05Z" fill="white"/>
</mask>
<g mask="url(#mask135_1171_2444)">
<path d="M196.06 275.613C200.682 275.549 205.304 275.502 209.926 275.477L216.196 275.436L230.062 275.477C234.683 275.501 231.71 275.548 236.332 275.613C231.71 275.68 234.683 275.727 230.062 275.751L216.196 275.791L209.926 275.75C205.304 275.726 200.682 275.679 196.06 275.613Z" fill="#DCDCDC"/>
</g>
<mask id="mask136_1171_2444" style="mask-type:luminance" maskUnits="userSpaceOnUse" x="0" y="0" width="372" height="372">
<path d="M0 2.09808e-05H372V372H0V2.09808e-05Z" fill="white"/>
</mask>
<g mask="url(#mask136_1171_2444)">
<path d="M196.06 277.449C200.682 277.383 205.304 277.336 209.926 277.312L216.196 277.271L230.062 277.311C234.683 277.336 231.71 277.383 236.332 277.449C231.71 277.514 234.683 277.561 230.062 277.586L216.196 277.626L209.926 277.585C205.304 277.56 200.682 277.514 196.06 277.449Z" fill="#DCDCDC"/>
</g>
<mask id="mask137_1171_2444" style="mask-type:luminance" maskUnits="userSpaceOnUse" x="0" y="0" width="372" height="372">
<path d="M0 2.09808e-05H372V372H0V2.09808e-05Z" fill="white"/>
</mask>
<g mask="url(#mask137_1171_2444)">
<path d="M196.06 279.283C200.682 279.218 205.304 279.171 209.926 279.146L216.196 279.106L230.062 279.146C234.683 279.17 231.71 279.217 236.332 279.283C231.71 279.349 234.683 279.396 230.062 279.42L216.196 279.46L209.926 279.42C205.304 279.396 200.682 279.348 196.06 279.283Z" fill="#DCDCDC"/>
</g>
<mask id="mask138_1171_2444" style="mask-type:luminance" maskUnits="userSpaceOnUse" x="0" y="0" width="372" height="372">
<path d="M0 2.09808e-05H372V372H0V2.09808e-05Z" fill="white"/>
</mask>
<g mask="url(#mask138_1171_2444)">
<path d="M251.106 282.431H245.366V270.631H251.106V282.431Z" fill="#375A64"/>
</g>
<mask id="mask139_1171_2444" style="mask-type:luminance" maskUnits="userSpaceOnUse" x="0" y="0" width="372" height="372">
<path d="M0 2.09808e-05H372V372H0V2.09808e-05Z" fill="white"/>
</mask>
<g mask="url(#mask139_1171_2444)">
<path d="M274.997 282.431H271.138V270.631H274.997V282.431Z" fill="#375A64"/>
</g>
<mask id="mask140_1171_2444" style="mask-type:luminance" maskUnits="userSpaceOnUse" x="0" y="0" width="372" height="372">
<path d="M0 2.09808e-05H372V372H0V2.09808e-05Z" fill="white"/>
</mask>
<g mask="url(#mask140_1171_2444)">
<path d="M230.471 295.82H280.149V312.038H230.471V295.82Z" fill="#FF6B6B"/>
</g>
<mask id="mask141_1171_2444" style="mask-type:luminance" maskUnits="userSpaceOnUse" x="0" y="0" width="372" height="372">
<path d="M0 2.09808e-05H372V372H0V2.09808e-05Z" fill="white"/>
</mask>
<g mask="url(#mask141_1171_2444)">
<path d="M192.75 295.82H230.471V312.038H192.75V295.82Z" fill="#FF6B6B"/>
</g>
<mask id="mask142_1171_2444" style="mask-type:luminance" maskUnits="userSpaceOnUse" x="0" y="0" width="372" height="372">
<path d="M0 2.09808e-05H372V372H0V2.09808e-05Z" fill="white"/>
</mask>
<g mask="url(#mask142_1171_2444)">
<path d="M230.471 297.503H280.149V310.355H230.471V297.503Z" fill="white"/>
</g>
<mask id="mask143_1171_2444" style="mask-type:luminance" maskUnits="userSpaceOnUse" x="0" y="0" width="372" height="372">
<path d="M0 2.09808e-05H372V372H0V2.09808e-05Z" fill="white"/>
</mask>
<g mask="url(#mask143_1171_2444)">
<path d="M276.934 307.712C273.063 307.776 269.191 307.823 265.319 307.848L253.702 307.889L242.087 307.848C238.215 307.824 234.343 307.777 230.472 307.712C234.343 307.645 238.215 307.599 242.087 307.574L253.702 307.534L265.319 307.575C269.191 307.599 273.063 307.646 276.934 307.712Z" fill="#DCDCDC"/>
</g>
<mask id="mask144_1171_2444" style="mask-type:luminance" maskUnits="userSpaceOnUse" x="0" y="0" width="372" height="372">
<path d="M0 2.09808e-05H372V372H0V2.09808e-05Z" fill="white"/>
</mask>
<g mask="url(#mask144_1171_2444)">
<path d="M276.934 305.19C273.063 305.255 269.191 305.302 265.319 305.327L253.702 305.368L242.087 305.327C238.215 305.303 234.343 305.256 230.472 305.19C234.343 305.124 238.215 305.077 242.087 305.053L253.702 305.012L265.319 305.054C269.191 305.077 273.063 305.124 276.934 305.19Z" fill="#DCDCDC"/>
</g>
<mask id="mask145_1171_2444" style="mask-type:luminance" maskUnits="userSpaceOnUse" x="0" y="0" width="372" height="372">
<path d="M0 2.09808e-05H372V372H0V2.09808e-05Z" fill="white"/>
</mask>
<g mask="url(#mask145_1171_2444)">
<path d="M276.934 302.668C273.063 302.734 269.191 302.781 265.319 302.805L253.702 302.846L242.087 302.805C238.215 302.781 234.343 302.735 230.472 302.668C234.343 302.602 238.215 302.555 242.087 302.531L253.702 302.491L265.319 302.532C269.191 302.556 273.063 302.603 276.934 302.668Z" fill="#DCDCDC"/>
</g>
<mask id="mask146_1171_2444" style="mask-type:luminance" maskUnits="userSpaceOnUse" x="0" y="0" width="372" height="372">
<path d="M0 2.09808e-05H372V372H0V2.09808e-05Z" fill="white"/>
</mask>
<g mask="url(#mask146_1171_2444)">
<path d="M276.934 300.147C273.063 300.212 269.191 300.259 265.319 300.283L253.702 300.324L242.087 300.284C238.215 300.26 234.343 300.213 230.472 300.147C234.343 300.081 238.215 300.034 242.087 300.01L253.702 299.969L265.319 300.01C269.191 300.035 273.063 300.082 276.934 300.147Z" fill="#DCDCDC"/>
</g>
<mask id="mask147_1171_2444" style="mask-type:luminance" maskUnits="userSpaceOnUse" x="0" y="0" width="372" height="372">
<path d="M0 2.09808e-05H372V372H0V2.09808e-05Z" fill="white"/>
</mask>
<g mask="url(#mask147_1171_2444)">
<path d="M205.82 312.038H198.76V295.82H205.82V312.038Z" fill="#375A64"/>
</g>
</svg>
