<svg width="1160" height="235" viewBox="0 0 1160 235" fill="none" xmlns="http://www.w3.org/2000/svg">
<path d="M777.589 219C779.321 224.333 781.468 227.889 786.25 227.889C791.013 227.889 793.161 224.364 794.888 219.069L794.911 219L794.94 218.909C798.053 209.359 801.917 203 810.5 203C819.109 203 822.971 209.4 826.089 219L826.155 219.203C828.095 224.369 830.028 227.889 834.75 227.889C839.532 227.889 841.679 224.333 843.411 219L843.445 218.89L843.487 218.767C846.591 209.297 850.461 203 859 203V211.891C854.438 212.477 851.595 215.135 850.339 219.002L850.199 219.43C847.105 228.79 843.231 235 834.75 235C826.183 235 822.317 228.662 819.207 219.142L819.008 218.538C817.37 213.462 815.144 210.111 810.5 210.111C805.718 210.111 803.571 213.667 801.839 219L801.735 219.318C798.635 228.74 794.765 235 786.25 235C777.641 235 773.779 228.6 770.661 219L770.609 218.842C769.327 215.062 766.5 212.47 762 211.891V203C770.609 203 774.471 209.4 777.589 219Z" fill="#DB4D4D"/>
<path d="M874.589 219C876.321 224.333 878.468 227.889 883.25 227.889C888.013 227.889 890.161 224.364 891.888 219.069L891.911 219L891.94 218.909C895.053 209.359 898.917 203 907.5 203C916.109 203 919.971 209.4 923.089 219L923.155 219.203C925.095 224.369 927.028 227.889 931.75 227.889C936.532 227.889 938.679 224.333 940.411 219L940.445 218.89L940.487 218.767C943.591 209.297 947.461 203 956 203V211.891C951.438 212.477 948.595 215.135 947.339 219.002L947.199 219.43C944.105 228.79 940.231 235 931.75 235C923.183 235 919.317 228.662 916.207 219.142L916.008 218.538C914.37 213.462 912.144 210.111 907.5 210.111C902.718 210.111 900.571 213.667 898.839 219L898.735 219.318C895.635 228.74 891.765 235 883.25 235C874.641 235 870.779 228.6 867.661 219L867.609 218.842C866.327 215.062 863.5 212.47 859 211.891V203C867.609 203 871.471 209.4 874.589 219Z" fill="#DB4D4D"/>
<path d="M54.918 188H3.888V63.26H79.542C86.454 63.26 92.772 64.61 98.496 67.31C104.328 69.902 108.972 74.492 112.428 81.08C115.884 87.56 117.612 96.578 117.612 108.134C117.612 119.474 115.83 128.492 112.266 135.188C108.702 141.776 104.004 146.528 98.172 149.444C92.448 152.252 86.238 153.656 79.542 153.656H54.918V188ZM67.554 104.246H52.002V112.994H68.04C68.904 112.994 69.822 112.724 70.794 112.184C71.874 111.644 72.414 110.51 72.414 108.782C72.414 106.946 71.82 105.758 70.632 105.218C69.444 104.57 68.418 104.246 67.554 104.246ZM223.952 152.846C222.98 165.59 217.958 175.094 208.886 181.358C199.814 187.514 187.826 190.592 172.922 190.592C157.91 190.592 145.868 187.514 136.796 181.358C127.832 175.094 122.864 165.59 121.892 152.846C121.784 151.01 121.622 148.688 121.406 145.88C121.298 142.964 121.244 139.994 121.244 136.97C121.244 133.838 121.298 131.03 121.406 128.546C121.622 126.062 121.784 123.848 121.892 121.904C122.864 109.268 127.886 99.98 136.958 94.04C146.03 87.992 158.018 84.968 172.922 84.968C187.826 84.968 199.814 87.992 208.886 94.04C217.958 100.088 222.98 109.376 223.952 121.904C224.276 125.576 224.438 130.382 224.438 136.322C224.438 139.454 224.384 142.532 224.276 145.556C224.276 148.472 224.168 150.902 223.952 152.846ZM177.296 147.824V126.278C177.296 125.954 177.08 125.144 176.648 123.848C176.324 122.552 175.082 121.904 172.922 121.904C170.762 121.904 169.466 122.552 169.034 123.848C168.71 125.144 168.548 125.954 168.548 126.278V147.824C168.548 148.256 168.71 149.12 169.034 150.416C169.466 151.604 170.762 152.198 172.922 152.198C175.082 152.198 176.324 151.604 176.648 150.416C177.08 149.12 177.296 148.256 177.296 147.824ZM285.183 139.238L330.381 141.83V153.98C330.381 165.428 325.899 174.392 316.935 180.872C307.971 187.244 295.443 190.43 279.351 190.43C270.387 190.43 262.233 189.026 254.889 186.218C247.545 183.41 241.605 179.306 237.069 173.906C232.641 168.506 230.211 161.972 229.779 154.304C229.671 152.792 229.563 150.524 229.455 147.5C229.455 144.368 229.455 140.804 229.455 136.808C229.455 132.92 229.455 129.518 229.455 126.602C229.563 123.578 229.671 121.364 229.779 119.96C230.211 112.508 232.641 106.19 237.069 101.006C241.605 95.714 247.545 91.718 254.889 89.018C262.233 86.318 270.387 84.968 279.351 84.968C289.827 84.968 298.845 86.318 306.405 89.018C314.073 91.718 319.959 95.66 324.063 100.844C328.275 105.92 330.381 112.076 330.381 119.312V128.708L285.183 133.73V127.898C285.183 124.982 283.725 123.524 280.809 123.524C277.893 123.524 276.435 124.982 276.435 127.898V146.042C276.435 148.958 277.893 150.416 280.809 150.416C283.725 150.416 285.183 148.958 285.183 146.042V139.238ZM383.4 188H336.744V57.752H384.858V103.112L383.4 122.714H384.858L393.444 87.56H441.72L420.984 135.026L443.664 188H392.958L384.696 148.958H383.238V165.32L383.4 188ZM484.236 85.292C499.788 85.292 512.154 88.694 521.334 95.498C530.514 102.302 535.32 111.806 535.752 124.01V142.478H481.32V151.55C481.32 154.466 482.778 155.924 485.694 155.924C488.61 155.924 490.068 154.466 490.068 151.55V147.338L535.266 149.768V153.17C535.266 164.942 530.784 174.122 521.82 180.71C512.856 187.19 500.328 190.43 484.236 190.43C469.98 190.43 458.586 187.19 450.054 180.71C441.63 174.23 436.5 165.158 434.664 153.494C434.34 152.09 434.07 149.93 433.854 147.014C433.746 144.098 433.692 140.696 433.692 136.808C433.692 133.028 433.746 129.68 433.854 126.764C434.07 123.74 434.34 121.526 434.664 120.122C436.392 109.214 441.522 100.682 450.054 94.526C458.586 88.37 469.98 85.292 484.236 85.292ZM481.32 124.982V130.814H490.068V124.982C490.068 122.066 488.61 120.608 485.694 120.608C482.778 120.608 481.32 122.066 481.32 124.982ZM607.215 148.958L610.617 188.324C606.729 189.08 602.949 189.62 599.277 189.944C595.605 190.376 592.095 190.592 588.747 190.592C581.079 190.592 574.275 189.458 568.335 187.19C562.395 184.814 557.751 180.656 554.403 174.716C551.055 168.668 549.381 160.19 549.381 149.282V122.552H540.633V87.56H549.705L552.297 74.438L596.037 70.064V87.56H607.701V122.552H596.037V138.752C596.037 142.748 596.793 145.502 598.305 147.014C599.817 148.418 601.923 149.12 604.623 149.12C604.947 149.12 605.325 149.12 605.757 149.12C606.297 149.12 606.783 149.066 607.215 148.958ZM763.034 157.706C763.034 162.134 763.088 166.94 763.196 172.124C763.412 177.308 763.79 182.6 764.33 188H719.132C718.7 184.436 718.484 180.926 718.484 177.47C718.484 173.906 718.538 170.342 718.646 166.778H717.188C717.08 170.45 716.108 174.122 714.272 177.794C712.544 181.466 709.844 184.544 706.172 187.028C702.608 189.404 698.018 190.592 692.402 190.592C683.87 190.592 677.174 189.026 672.314 185.894C667.454 182.762 663.89 178.604 661.622 173.42C659.354 168.128 657.896 162.35 657.248 156.086C656.708 149.822 656.438 143.558 656.438 137.294C656.438 130.382 656.816 123.794 657.572 117.53C658.436 111.158 660.056 105.542 662.432 100.682C664.808 95.714 668.318 91.826 672.962 89.018C677.606 86.21 683.762 84.86 691.43 84.968C697.694 84.968 702.716 85.94 706.496 87.884C710.384 89.72 713.462 91.988 715.73 94.688V57.752H763.034V157.706ZM712.814 148.472V126.602C712.814 126.278 712.598 125.468 712.166 124.172C711.842 122.876 710.6 122.228 708.44 122.228C706.28 122.228 704.984 122.876 704.552 124.172C704.228 125.468 704.066 126.278 704.066 126.602V148.472C704.066 148.904 704.228 149.768 704.552 151.064C704.984 152.252 706.28 152.846 708.44 152.846C710.6 152.846 711.842 152.252 712.166 151.064C712.598 149.768 712.814 148.904 712.814 148.472ZM1032.79 84.968C1034.08 84.968 1035.65 85.076 1037.48 85.292C1039.43 85.4 1041.43 85.724 1043.48 86.264L1038.62 138.752L1038.29 138.914C1036.67 138.266 1034.73 137.672 1032.46 137.132C1030.19 136.484 1027.44 136.16 1024.2 136.16C1021.82 136.16 1019.29 136.484 1016.59 137.132C1013.89 137.78 1011.56 138.914 1009.62 140.534C1007.78 142.154 1006.87 144.476 1006.87 147.5V188.162L961.021 188V112.832C961.021 109.052 960.967 105.002 960.859 100.682C960.751 96.254 960.427 91.88 959.887 87.56H997.633C999.793 91.556 1001.2 96.092 1001.84 101.168C1002.6 106.244 1003.03 110.996 1003.14 115.424H1004.44C1004.44 113.912 1004.81 111.536 1005.57 108.296C1006.43 104.948 1007.89 101.492 1009.94 97.928C1012.1 94.364 1015.02 91.34 1018.69 88.856C1022.36 86.264 1027.06 84.968 1032.79 84.968ZM1119.29 212.948H1059.51L1076.2 172.772L1045.74 87.56H1098.23L1102.6 142.802H1105.36L1105.52 87.56H1158.01L1119.29 212.948Z" fill="#F9B839"/>
<path d="M822.045 188.162L771.015 188V63.26H822.045V188.162ZM957.357 188H904.869L903.249 173.096H880.245L878.625 188H826.137L858.213 63.26H925.281L957.357 188ZM887.373 109.43L885.591 124.982H897.903L896.121 109.43H887.373Z" fill="#F98939"/>
</svg>
