<svg width="18" height="17" viewBox="0 0 18 17" fill="none" xmlns="http://www.w3.org/2000/svg">
<path d="M0 13.4585C0.00113592 14.3975 0.378352 15.2976 1.04891 15.9616C1.71946 16.6255 2.6286 16.999 3.57691 17.0002H13.5922C14.5406 16.999 15.4497 16.6255 16.1202 15.9616C16.7908 15.2976 17.168 14.3975 17.1692 13.4585V7.0835H0V13.4585ZM12.1615 10.271C12.3737 10.271 12.5812 10.3333 12.7577 10.4501C12.9341 10.5668 13.0717 10.7327 13.1529 10.9269C13.2341 11.121 13.2553 11.3347 13.2139 11.5408C13.1725 11.7469 13.0703 11.9362 12.9203 12.0848C12.7702 12.2334 12.579 12.3346 12.3708 12.3756C12.1627 12.4166 11.9469 12.3955 11.7508 12.3151C11.5548 12.2347 11.3872 12.0985 11.2693 11.9238C11.1513 11.7491 11.0884 11.5436 11.0884 11.3335C11.0884 11.0517 11.2015 10.7815 11.4027 10.5822C11.6039 10.3829 11.8769 10.271 12.1615 10.271ZM8.58458 10.271C8.79681 10.271 9.00428 10.3333 9.18074 10.4501C9.35721 10.5668 9.49475 10.7327 9.57597 10.9269C9.65718 11.121 9.67843 11.3347 9.63703 11.5408C9.59563 11.7469 9.49343 11.9362 9.34335 12.0848C9.19328 12.2334 9.00208 12.3346 8.79392 12.3756C8.58577 12.4166 8.37001 12.3955 8.17393 12.3151C7.97785 12.2347 7.81026 12.0985 7.69235 11.9238C7.57444 11.7491 7.5115 11.5436 7.5115 11.3335C7.5115 11.0517 7.62456 10.7815 7.8258 10.5822C8.02704 10.3829 8.29998 10.271 8.58458 10.271ZM5.00767 10.271C5.2199 10.271 5.42737 10.3333 5.60384 10.4501C5.7803 10.5668 5.91784 10.7327 5.99906 10.9269C6.08028 11.121 6.10153 11.3347 6.06012 11.5408C6.01872 11.7469 5.91652 11.9362 5.76645 12.0848C5.61637 12.2334 5.42517 12.3346 5.21702 12.3756C5.00886 12.4166 4.7931 12.3955 4.59702 12.3151C4.40094 12.2347 4.23335 12.0985 4.11544 11.9238C3.99753 11.7491 3.9346 11.5436 3.9346 11.3335C3.9346 11.0517 4.04765 10.7815 4.24889 10.5822C4.45013 10.3829 4.72307 10.271 5.00767 10.271Z" fill="white"/>
<path d="M13.5922 1.41667H12.8769V0.708333C12.8769 0.520472 12.8015 0.340304 12.6673 0.207466C12.5332 0.0746278 12.3512 0 12.1615 0C11.9718 0 11.7898 0.0746278 11.6556 0.207466C11.5215 0.340304 11.4461 0.520472 11.4461 0.708333V1.41667H5.72305V0.708333C5.72305 0.520472 5.64768 0.340304 5.51352 0.207466C5.37936 0.0746278 5.1974 0 5.00767 0C4.81794 0 4.63598 0.0746278 4.50182 0.207466C4.36766 0.340304 4.29229 0.520472 4.29229 0.708333V1.41667H3.57691C2.6286 1.41779 1.71946 1.79129 1.04891 2.45524C0.378352 3.11919 0.00113592 4.01937 0 4.95833L0 5.66667H17.1692V4.95833C17.168 4.01937 16.7908 3.11919 16.1202 2.45524C15.4497 1.79129 14.5406 1.41779 13.5922 1.41667Z" fill="white"/>
</svg>
