<svg width="24" height="24" viewBox="0 0 24 24" fill="none" xmlns="http://www.w3.org/2000/svg">
<path fill-rule="evenodd" clip-rule="evenodd" d="M10 6V18C10 19.4 10 20.1 9.728 20.635C9.4881 21.1053 9.10549 21.4875 8.635 21.727C8.1 22 7.4 22 6 22C4.6 22 3.9 22 3.365 21.727C2.89451 21.4875 2.5119 21.1053 2.272 20.635C2 20.1 2 19.4 2 18V6C2 4.6 2 3.9 2.272 3.365C2.51173 2.89435 2.89435 2.51173 3.365 2.272C3.9 2 4.6 2 6 2C7.4 2 8.1 2 8.635 2.272C9.10565 2.51173 9.48827 2.89435 9.728 3.365C10 3.9 10 4.6 10 6ZM7 19.75C7.19891 19.75 7.38968 19.671 7.53033 19.5303C7.67098 19.3897 7.75 19.1989 7.75 19C7.75 18.8011 7.67098 18.6103 7.53033 18.4697C7.38968 18.329 7.19891 18.25 7 18.25H5C4.80109 18.25 4.61032 18.329 4.46967 18.4697C4.32902 18.6103 4.25 18.8011 4.25 19C4.25 19.1989 4.32902 19.3897 4.46967 19.5303C4.61032 19.671 4.80109 19.75 5 19.75H7Z" fill="white"/>
<path d="M19.06 10.6141L13.222 16.7041C12.492 17.4651 12.127 17.8461 11.814 17.7201C11.5 17.5941 11.5 17.0671 11.5 16.0121V7.77408C11.5015 7.11405 11.7639 6.48138 12.23 6.01408L13.284 4.95908L13.714 4.62908C14.718 3.86208 15.22 3.47908 15.767 3.36008C16.2172 3.26326 16.6854 3.29267 17.12 3.44508C17.648 3.62908 18.099 4.07308 19 4.95908C20 5.95908 20.5 6.45908 20.685 7.03108C20.8427 7.51909 20.8466 8.04381 20.696 8.53408C20.52 9.10908 20.033 9.61108 19.06 10.6141ZM12.79 22.0001H17.9C19.3 22.0001 20 22.0001 20.534 21.7271C21.0045 21.4876 21.3871 21.1054 21.627 20.6351C21.899 20.1001 21.899 19.4001 21.899 18.0001C21.899 16.6001 21.899 15.9001 21.627 15.3651C21.3871 14.8948 21.0045 14.5125 20.534 14.2731C20 14.0001 19.3 14.0001 17.9 14.0001H17.68L11.879 19.7981C11.7595 19.912 11.6644 20.049 11.5994 20.2008C11.5345 20.3526 11.501 20.516 11.501 20.6811C11.501 21.3941 12.078 22.0001 12.791 22.0001" fill="white"/>
</svg>
