<svg width="53" height="53" viewBox="0 0 53 53" fill="none" xmlns="http://www.w3.org/2000/svg">
<path d="M4.41683 41.9583V37.5416H48.5835V41.9583H4.41683ZM6.95641 28.5978L4.08558 26.9416L5.96266 23.6291H2.2085V20.3166H5.96266L4.08558 17.1145L6.95641 15.4583L8.8335 18.6603L10.7106 15.4583L13.5814 17.1145L11.7043 20.3166H15.4585V23.6291H11.7043L13.5814 26.9416L10.7106 28.5978L8.8335 25.2853L6.95641 28.5978ZM24.6231 28.5978L21.7522 26.9416L23.6293 23.6291H19.8752V20.3166H23.6293L21.7522 17.1145L24.6231 15.4583L26.5002 18.6603L28.3772 15.4583L31.2481 17.1145L29.371 20.3166H33.1252V23.6291H29.371L31.2481 26.9416L28.3772 28.5978L26.5002 25.2853L24.6231 28.5978ZM42.2897 28.5978L39.4189 26.9416L41.296 23.6291H37.5418V20.3166H41.296L39.4189 17.1145L42.2897 15.4583L44.1668 18.6603L46.0439 15.4583L48.9147 17.1145L47.0377 20.3166H50.7918V23.6291H47.0377L48.9147 26.9416L46.0439 28.5978L44.1668 25.2853L42.2897 28.5978Z" fill="white"/>
</svg>
