<svg width="24" height="24" viewBox="0 0 24 24" fill="none" xmlns="http://www.w3.org/2000/svg">
<path d="M20.3519 2.73331L21.2668 3.64847C22.2444 4.62621 22.2444 6.21015 21.2668 7.18789L19.0615 9.39368L14.6039 4.93909L16.8092 2.73331C17.7868 1.75556 19.3704 1.75556 20.3479 2.73331H20.3519ZM3.75697 15.792L13.7202 5.82297L18.1778 10.2815L8.21068 20.2466C7.9487 20.5086 7.62024 20.7003 7.26441 20.802L3.19781 21.9635C2.86935 22.0574 2.51743 21.9674 2.275 21.7249C2.03257 21.4825 1.94263 21.1305 2.03648 20.802L3.19781 16.7346C3.29947 16.3747 3.49107 16.0501 3.75306 15.7881L3.75697 15.792ZM11.7533 6.02243L6.04443 11.7324L2.62692 8.31034C1.89571 7.57899 1.89571 6.39006 2.62692 5.6548L5.68078 2.60424C6.41199 1.87289 7.60069 1.87289 8.33581 2.60424L9.11003 3.37861C9.0983 3.39035 9.08266 3.40208 9.07093 3.41381L6.5684 5.91683C6.32597 6.15931 6.32597 6.55823 6.5684 6.80071C6.81083 7.04319 7.20967 7.04319 7.4521 6.80071L9.95463 4.29769C9.96636 4.28596 9.97809 4.27031 9.98982 4.25858L11.7533 6.02243ZM17.9784 12.2487L19.7419 14.0125C19.7301 14.0243 19.7145 14.036 19.7028 14.0477L17.2002 16.5507C16.9578 16.7932 16.9578 17.1921 17.2002 17.4346C17.4427 17.6771 17.8415 17.6771 18.0839 17.4346L20.5865 14.9316C20.5982 14.9199 20.6099 14.9042 20.6217 14.8925L21.3959 15.6708C22.1271 16.4021 22.1271 17.5911 21.3959 18.3263L18.342 21.3769C17.6108 22.1082 16.4221 22.1082 15.687 21.3769L12.2695 17.9587L17.9784 12.2487Z" fill="white"/>
</svg>
