<svg width="17" height="17" viewBox="0 0 17 17" fill="none" xmlns="http://www.w3.org/2000/svg">
<path d="M8.50285 4.81812e-07C7.02817 -0.000495976 5.57874 0.382676 4.29696 1.11187C3.01518 1.84106 1.94516 2.89118 1.19205 4.15905C0.43893 5.42692 0.0286232 6.86891 0.0014441 8.34334C-0.025735 9.81777 0.331148 11.2739 1.03703 12.5687L0.0311951 16.0962C-0.00419704 16.22 -0.00513993 16.3512 0.0284681 16.4756C0.062076 16.5999 0.128962 16.7128 0.221928 16.8019C0.314894 16.8911 0.430419 16.9533 0.55607 16.9817C0.681721 17.0101 0.812741 17.0037 0.935027 16.9632L4.24719 15.8596C5.37607 16.5119 6.63989 16.8958 7.94088 16.9816C9.24187 17.0674 10.5451 16.8527 11.7499 16.3542C12.9546 15.8557 14.0286 15.0867 14.8886 14.1068C15.7486 13.1268 16.3717 11.9622 16.7096 10.7029C17.0475 9.44364 17.0912 8.12352 16.8373 6.84467C16.5833 5.56582 16.0386 4.36252 15.2453 3.32787C14.4519 2.29321 13.4312 1.45492 12.2621 0.877862C11.0929 0.300802 9.80666 0.000436262 8.50285 4.81812e-07ZM5.66952 7.08333C5.66952 6.89547 5.74415 6.7153 5.87699 6.58247C6.00983 6.44963 6.18999 6.375 6.37785 6.375H10.6278C10.8157 6.375 10.9959 6.44963 11.1287 6.58247C11.2616 6.7153 11.3362 6.89547 11.3362 7.08333C11.3362 7.27119 11.2616 7.45136 11.1287 7.5842C10.9959 7.71704 10.8157 7.79167 10.6278 7.79167H6.37785C6.18999 7.79167 6.00983 7.71704 5.87699 7.5842C5.74415 7.45136 5.66952 7.27119 5.66952 7.08333ZM6.37785 9.20833H9.21118C9.39905 9.20833 9.57921 9.28296 9.71205 9.4158C9.84489 9.54864 9.91952 9.7288 9.91952 9.91667C9.91952 10.1045 9.84489 10.2847 9.71205 10.4175C9.57921 10.5504 9.39905 10.625 9.21118 10.625H6.37785C6.18999 10.625 6.00983 10.5504 5.87699 10.4175C5.74415 10.2847 5.66952 10.1045 5.66952 9.91667C5.66952 9.7288 5.74415 9.54864 5.87699 9.4158C6.00983 9.28296 6.18999 9.20833 6.37785 9.20833Z" fill="white"/>
</svg>
