<svg width="18" height="17" viewBox="0 0 18 17" fill="none" xmlns="http://www.w3.org/2000/svg">
<path d="M8.58458 0C6.88671 0 5.22697 0.498516 3.81525 1.43251C2.40352 2.3665 1.30321 3.69402 0.653466 5.24719C0.00371958 6.80036 -0.166284 8.50943 0.164954 10.1583C0.496192 11.8071 1.31379 13.3217 2.51437 14.5104C3.71494 15.6992 5.24457 16.5087 6.90981 16.8367C8.57506 17.1646 10.3011 16.9963 11.8698 16.353C13.4384 15.7096 14.7791 14.6202 15.7224 13.2223C16.6657 11.8245 17.1692 10.1811 17.1692 8.5C17.1667 6.24641 16.2615 4.08582 14.6521 2.49228C13.0427 0.898753 10.8606 0.00243743 8.58458 0ZM9.29996 8.41429C9.30004 8.53436 9.26929 8.65248 9.2106 8.75755C9.15191 8.86263 9.06721 8.9512 8.96445 9.01496L6.21738 10.715C6.13753 10.7644 6.04863 10.7977 5.95577 10.8131C5.8629 10.8284 5.76789 10.8256 5.67615 10.8046C5.58441 10.7836 5.49774 10.7449 5.4211 10.6908C5.34445 10.6366 5.27933 10.5681 5.22944 10.489C5.17956 10.4099 5.14589 10.3219 5.13036 10.23C5.11483 10.138 5.11774 10.0439 5.13894 9.9531C5.16013 9.86226 5.19918 9.77645 5.25386 9.70056C5.30855 9.62467 5.3778 9.56019 5.45765 9.51079L7.8692 8.02188V4.95833C7.8692 4.77047 7.94457 4.5903 8.07873 4.45747C8.21289 4.32463 8.39485 4.25 8.58458 4.25C8.77431 4.25 8.95627 4.32463 9.09043 4.45747C9.22459 4.5903 9.29996 4.77047 9.29996 4.95833V8.41429Z" fill="white"/>
</svg>
