<svg width="14" height="14" viewBox="0 0 14 14" fill="none" xmlns="http://www.w3.org/2000/svg">
<path fill-rule="evenodd" clip-rule="evenodd" d="M5.513 2.01102C5.72726 1.79686 5.99345 1.64198 6.28553 1.56155C6.5776 1.48111 6.88556 1.47788 7.17926 1.55216C7.47295 1.62644 7.74234 1.77569 7.96105 1.98531C8.17977 2.19493 8.34032 2.45774 8.427 2.74802H5.073C5.15621 2.46964 5.30743 2.21636 5.513 2.01102ZM3.539 2.74802C3.65869 1.98237 4.04804 1.28468 4.63682 0.780798C5.22559 0.276914 5.97504 0 6.75 0C7.52496 0 8.27441 0.276914 8.86318 0.780798C9.45196 1.28468 9.84131 1.98237 9.961 2.74802H12.75C12.9489 2.74802 13.1397 2.82704 13.2803 2.96769C13.421 3.10835 13.5 3.29911 13.5 3.49802C13.5 3.69694 13.421 3.8877 13.2803 4.02836C13.1397 4.16901 12.9489 4.24802 12.75 4.24802H11.75V12.498C11.75 12.8958 11.592 13.2774 11.3107 13.5587C11.0294 13.84 10.6478 13.998 10.25 13.998H3.25C2.85218 13.998 2.47064 13.84 2.18934 13.5587C1.90804 13.2774 1.75 12.8958 1.75 12.498V4.24802H0.75C0.651509 4.24802 0.553982 4.22863 0.462987 4.19093C0.371993 4.15324 0.289314 4.098 0.21967 4.02836C0.150026 3.95871 0.0947814 3.87603 0.0570904 3.78504C0.0193993 3.69404 0 3.59652 0 3.49802C0 3.39953 0.0193993 3.30201 0.0570904 3.21101C0.0947814 3.12002 0.150026 3.03734 0.21967 2.96769C0.289314 2.89805 0.371993 2.84281 0.462987 2.80512C0.553982 2.76742 0.651509 2.74802 0.75 2.74802H3.539ZM4.75 5.87402C5.095 5.87402 5.375 6.15402 5.375 6.49902V10.501C5.375 10.6668 5.30915 10.8258 5.19194 10.943C5.07473 11.0602 4.91576 11.126 4.75 11.126C4.58424 11.126 4.42527 11.0602 4.30806 10.943C4.19085 10.8258 4.125 10.6668 4.125 10.501V6.49902C4.125 6.15402 4.405 5.87402 4.75 5.87402ZM9.375 6.49902C9.375 6.33326 9.30915 6.17429 9.19194 6.05708C9.07473 5.93987 8.91576 5.87402 8.75 5.87402C8.58424 5.87402 8.42527 5.93987 8.30806 6.05708C8.19085 6.17429 8.125 6.33326 8.125 6.49902V10.501C8.125 10.6668 8.19085 10.8258 8.30806 10.943C8.42527 11.0602 8.58424 11.126 8.75 11.126C8.91576 11.126 9.07473 11.0602 9.19194 10.943C9.30915 10.8258 9.375 10.6668 9.375 10.501V6.49902Z" fill="white"/>
</svg>
