<svg width="38" height="38" viewBox="0 0 38 38" fill="none" xmlns="http://www.w3.org/2000/svg">
<path d="M23.6404 4.52102L33.4696 14.3542C34.0456 14.9301 34.44 15.6624 34.6038 16.4604C34.7677 17.2583 34.6938 18.0868 34.3914 18.8432L29.4705 31.1487C29.1946 31.8377 28.7395 32.4403 28.1523 32.8941C27.5651 33.3478 26.8672 33.6362 26.131 33.7293L15.5631 35.0508C15.2926 35.082 15.0055 35.1215 14.71 35.1673L13.7862 35.3171L13.3035 35.4045L11.7991 35.6959L10.7692 35.9144L9.21903 36.264L7.23196 36.7385L4.0027 37.5627L2.65856 37.9248C2.31936 38.0181 1.96216 38.0247 1.61973 37.944C1.2773 37.8634 0.960591 37.698 0.69864 37.4632C0.436689 37.2283 0.23788 36.9314 0.120441 36.5997C0.00300227 36.2681 -0.0293079 35.9122 0.0264724 35.5648L0.0972162 35.261L0.711025 32.9468L1.26033 30.7658L1.73473 28.7783L2.08221 27.2279L2.30068 26.1957L2.59406 24.6931L2.76052 23.7421L2.89368 22.8514L4.26695 11.8631C4.3602 11.1266 4.64883 10.4284 5.10288 9.84107C5.55693 9.25372 6.15986 8.79862 6.84911 8.52297L19.1523 3.60117C19.9085 3.29872 20.7369 3.22485 21.5346 3.38873C22.3324 3.5526 23.0646 3.94494 23.6404 4.52102ZM15.921 16.1856C15.3953 16.7117 15.0202 17.3691 14.8347 18.0894C14.6491 18.8097 14.66 19.5665 14.8661 20.2812C14.7144 20.3701 14.5746 20.4778 14.4499 20.6017L6.00642 29.0468C5.95109 29.1029 5.91285 29.1737 5.89614 29.2507L5.71096 30.052L5.34059 31.5982L5.16165 32.3287C5.14399 32.3988 5.14482 32.4724 5.16407 32.5421C5.18332 32.6119 5.22033 32.6755 5.27149 32.7266C5.32264 32.7778 5.38619 32.8148 5.45592 32.8341C5.52566 32.8533 5.59919 32.8541 5.66935 32.8365L7.16121 32.4723L8.74879 32.1018C8.82532 32.0842 8.89529 32.0452 8.95062 31.9895L17.3941 23.5444C17.518 23.4204 17.6257 23.2812 17.7146 23.1302C18.4196 23.3329 19.1657 23.3456 19.8772 23.1671C20.5888 22.9885 21.2404 22.6249 21.7662 22.1132C22.292 21.6016 22.6733 20.96 22.8713 20.2535C23.0693 19.5469 23.077 18.8006 22.8937 18.0902C22.7105 17.3797 22.3427 16.7303 21.8276 16.2078C21.3126 15.6853 20.6686 15.3083 19.9609 15.1149C19.2532 14.9216 18.5071 14.9188 17.7979 15.1068C17.0888 15.2948 16.442 15.667 15.9231 16.1856H15.921ZM25.6129 0.61063C25.9709 0.252006 26.4475 0.0363719 26.9532 0.00418671C27.4588 -0.0279985 27.9589 0.125477 28.3594 0.435817L28.555 0.61063L37.3835 9.43866C37.7606 9.8123 37.9807 10.316 37.9987 10.8466C38.0167 11.3773 37.8312 11.8947 37.4803 12.2931C37.1293 12.6914 36.6394 12.9405 36.1109 12.9894C35.5823 13.0383 35.055 12.8833 34.6369 12.5561L34.4393 12.3813L25.6129 3.55331C25.2228 3.16304 25.0037 2.6338 25.0037 2.08197C25.0037 1.53013 25.2228 1.00089 25.6129 0.61063Z" fill="white"/>
</svg>
