<svg width="20" height="19" viewBox="0 0 20 19" fill="none" xmlns="http://www.w3.org/2000/svg">
<path d="M19.8111 16.6446L11.3916 0.840394C10.7949 -0.280131 9.20514 -0.280131 8.60787 0.840394L0.188925 16.6446C0.0593518 16.8879 -0.00561021 17.1609 0.000379745 17.4371C0.0063697 17.7133 0.083107 17.9832 0.223101 18.2205C0.363096 18.4578 0.561564 18.6544 0.799133 18.791C1.0367 18.9276 1.30526 18.9996 1.57858 19H18.419C18.6925 19 18.9613 18.9283 19.1993 18.7919C19.4372 18.6555 19.636 18.459 19.7763 18.2216C19.9166 17.9842 19.9935 17.7142 19.9996 17.4377C20.0057 17.1613 19.9407 16.888 19.8111 16.6446ZM10 16.5532C9.80459 16.5532 9.61356 16.4946 9.45108 16.3849C9.2886 16.2752 9.16197 16.1192 9.08719 15.9367C9.0124 15.7542 8.99284 15.5534 9.03096 15.3597C9.06908 15.166 9.16318 14.988 9.30136 14.8484C9.43954 14.7087 9.61559 14.6136 9.80725 14.575C9.9989 14.5365 10.1976 14.5563 10.3781 14.6319C10.5586 14.7075 10.7129 14.8355 10.8215 14.9997C10.9301 15.1639 10.988 15.357 10.988 15.5545C10.988 15.8194 10.8839 16.0734 10.6986 16.2607C10.5133 16.448 10.262 16.5532 10 16.5532ZM11.073 6.50894L10.7894 12.6009C10.7894 12.8128 10.7062 13.016 10.5579 13.1659C10.4097 13.3157 10.2086 13.3999 9.99901 13.3999C9.78938 13.3999 9.58833 13.3157 9.4401 13.1659C9.29187 13.016 9.20859 12.8128 9.20859 12.6009L8.92503 6.51143C8.91866 6.36592 8.94133 6.2206 8.99171 6.08413C9.04208 5.94766 9.11912 5.82285 9.21824 5.71712C9.31735 5.61139 9.43651 5.52691 9.56862 5.46872C9.70072 5.41053 9.84306 5.37982 9.98716 5.37842H9.99753C10.1426 5.37835 10.2862 5.40798 10.4196 5.46554C10.5531 5.5231 10.6736 5.60739 10.7739 5.71332C10.8742 5.81925 10.9523 5.94462 11.0033 6.08188C11.0544 6.21914 11.0774 6.36543 11.071 6.51193L11.073 6.50894Z" fill="#E95757"/>
</svg>
