<svg width="17" height="17" viewBox="0 0 17 17" fill="none" xmlns="http://www.w3.org/2000/svg">
<path d="M3.07629 7.79164H0C0.00112473 6.85267 0.374625 5.95248 1.03857 5.28854C1.70252 4.62459 2.6027 4.25108 3.54167 4.24996H7.79167V1.15878C7.79179 0.963799 7.84109 0.771996 7.93499 0.601114C8.0289 0.430232 8.16437 0.285789 8.3289 0.181144C8.49342 0.0764984 8.68167 0.0150307 8.87625 0.00242575C9.07082 -0.0101792 9.26543 0.0264855 9.44208 0.109029L11.7087 1.17153C11.8113 1.23506 11.8958 1.3237 11.9545 1.42907C12.0132 1.53443 12.0439 1.65303 12.0439 1.77362C12.0439 1.89421 12.0132 2.01281 11.9545 2.11817C11.8958 2.22353 11.8113 2.31218 11.7087 2.3757L9.20833 3.54162V4.24996H13.4583C14.3973 4.25108 15.2975 4.62459 15.9614 5.28854C16.6254 5.95248 16.9989 6.85267 17 7.79164H13.9237C13.3703 7.79178 12.8387 7.57603 12.4419 7.19026L10.5039 5.08013C9.96221 4.55774 9.23792 4.2676 8.48541 4.27157C7.7329 4.27554 7.0117 4.5733 6.47558 5.10138L4.57867 7.16901C4.1795 7.56644 3.63957 7.7902 3.07629 7.79164ZM8.5 13.4583C8.31214 13.4583 8.13197 13.5329 7.99913 13.6658C7.86629 13.7986 7.79167 13.9788 7.79167 14.1667V17H9.20833V14.1667C9.20833 13.9788 9.13371 13.7986 9.00087 13.6658C8.86803 13.5329 8.68786 13.4583 8.5 13.4583ZM13.9237 9.20831H17V14.875C17 15.4386 16.7761 15.9791 16.3776 16.3776C15.9791 16.7761 15.4386 17 14.875 17H10.625V14.1667C10.625 13.6031 10.4011 13.0626 10.0026 12.6641C9.60409 12.2655 9.06359 12.0417 8.5 12.0417C7.93641 12.0417 7.39591 12.2655 6.9974 12.6641C6.59888 13.0626 6.375 13.6031 6.375 14.1667V17H2.125C1.56141 17 1.02091 16.7761 0.622398 16.3776C0.223883 15.9791 0 15.4386 0 14.875L0 9.20831H3.07629C3.54646 9.20847 4.01193 9.1149 4.44552 8.93308C4.8791 8.75125 5.27208 8.48482 5.6015 8.14935L7.49842 6.08172C7.76627 5.83041 8.11868 5.68878 8.48594 5.68485C8.85321 5.68091 9.20857 5.81496 9.48175 6.06046L11.4212 8.1706C11.749 8.50033 12.139 8.76182 12.5686 8.93993C12.9981 9.11805 13.4587 9.20926 13.9237 9.20831ZM4.25 14.875C4.25 14.6871 4.17537 14.507 4.04253 14.3741C3.9097 14.2413 3.72953 14.1667 3.54167 14.1667H2.83333C2.64547 14.1667 2.4653 14.2413 2.33247 14.3741C2.19963 14.507 2.125 14.6871 2.125 14.875C2.125 15.0629 2.19963 15.243 2.33247 15.3759C2.4653 15.5087 2.64547 15.5833 2.83333 15.5833H3.54167C3.72953 15.5833 3.9097 15.5087 4.04253 15.3759C4.17537 15.243 4.25 15.0629 4.25 14.875ZM4.25 12.0417C4.25 11.8538 4.17537 11.6736 4.04253 11.5408C3.9097 11.4079 3.72953 11.3333 3.54167 11.3333H2.83333C2.64547 11.3333 2.4653 11.4079 2.33247 11.5408C2.19963 11.6736 2.125 11.8538 2.125 12.0417C2.125 12.2295 2.19963 12.4097 2.33247 12.5425C2.4653 12.6754 2.64547 12.75 2.83333 12.75H3.54167C3.72953 12.75 3.9097 12.6754 4.04253 12.5425C4.17537 12.4097 4.25 12.2295 4.25 12.0417ZM9.91667 9.20831C9.91667 8.92812 9.83358 8.65422 9.67791 8.42125C9.52225 8.18828 9.301 8.0067 9.04213 7.89947C8.78327 7.79225 8.49843 7.7642 8.22362 7.81886C7.94882 7.87352 7.69639 8.00845 7.49827 8.20657C7.30014 8.4047 7.16522 8.65712 7.11055 8.93193C7.05589 9.20674 7.08395 9.49158 7.19117 9.75045C7.29839 10.0093 7.47997 10.2306 7.71294 10.3862C7.94591 10.5419 8.21981 10.625 8.5 10.625C8.87572 10.625 9.23606 10.4757 9.50173 10.21C9.76741 9.94437 9.91667 9.58403 9.91667 9.20831ZM14.875 14.875C14.875 14.6871 14.8004 14.507 14.6675 14.3741C14.5347 14.2413 14.3545 14.1667 14.1667 14.1667H13.4583C13.2705 14.1667 13.0903 14.2413 12.9575 14.3741C12.8246 14.507 12.75 14.6871 12.75 14.875C12.75 15.0629 12.8246 15.243 12.9575 15.3759C13.0903 15.5087 13.2705 15.5833 13.4583 15.5833H14.1667C14.3545 15.5833 14.5347 15.5087 14.6675 15.3759C14.8004 15.243 14.875 15.0629 14.875 14.875ZM14.1667 11.3333H13.4583C13.2705 11.3333 13.0903 11.4079 12.9575 11.5408C12.8246 11.6736 12.75 11.8538 12.75 12.0417C12.75 12.2295 12.8246 12.4097 12.9575 12.5425C13.0903 12.6754 13.2705 12.75 13.4583 12.75H14.1667C14.3545 12.75 14.5347 12.6754 14.6675 12.5425C14.8004 12.4097 14.875 12.2295 14.875 12.0417C14.875 11.8538 14.8004 11.6736 14.6675 11.5408C14.5347 11.4079 14.3545 11.3333 14.1667 11.3333Z" fill="white"/>
</svg>
