<svg width="53" height="53" viewBox="0 0 53 53" fill="none" xmlns="http://www.w3.org/2000/svg">
<path fill-rule="evenodd" clip-rule="evenodd" d="M48.5832 26.5001C48.5832 38.6967 38.6965 48.5834 26.4998 48.5834C14.3032 48.5834 4.4165 38.6967 4.4165 26.5001C4.4165 14.3035 14.3032 4.41675 26.4998 4.41675C38.6965 4.41675 48.5832 14.3035 48.5832 26.5001ZM24.2915 17.6667C24.2915 18.2524 24.5242 18.8141 24.9383 19.2283C25.3525 19.6424 25.9142 19.8751 26.4998 19.8751H26.5175C27.1032 19.8751 27.6649 19.6424 28.079 19.2283C28.4932 18.8141 28.7258 18.2524 28.7258 17.6667C28.7258 17.0811 28.4932 16.5194 28.079 16.1052C27.6649 15.6911 27.1032 15.4584 26.5175 15.4584H26.4998C25.9142 15.4584 25.3525 15.6911 24.9383 16.1052C24.5242 16.5194 24.2915 17.0811 24.2915 17.6667ZM26.4998 37.5418C27.0855 37.5418 27.6472 37.3091 28.0614 36.8949C28.4755 36.4808 28.7082 35.9191 28.7082 35.3334V24.2917C28.7082 23.7061 28.4755 23.1444 28.0614 22.7302C27.6472 22.3161 27.0855 22.0834 26.4998 22.0834C25.9142 22.0834 25.3525 22.3161 24.9383 22.7302C24.5242 23.1444 24.2915 23.7061 24.2915 24.2917V35.3334C24.2915 35.9191 24.5242 36.4808 24.9383 36.8949C25.3525 37.3091 25.9142 37.5418 26.4998 37.5418Z" fill="white"/>
</svg>
