<svg width="53" height="53" viewBox="0 0 53 53" fill="none" xmlns="http://www.w3.org/2000/svg">
<g clip-path="url(#clip0_603_1077)">
<path d="M33.8613 5.88892H10.3058C9.52486 5.88892 8.77593 6.19913 8.22374 6.75132C7.67155 7.30351 7.36133 8.05245 7.36133 8.83336V44.1667C7.36133 44.9476 7.67155 45.6965 8.22374 46.2487C8.77593 46.8009 9.52486 47.1111 10.3058 47.1111H33.8613C34.6422 47.1111 35.3912 46.8009 35.9434 46.2487C36.4956 45.6965 36.8058 44.9476 36.8058 44.1667V35.3334H23.0111C22.6206 35.3334 22.2461 35.1783 21.97 34.9022C21.6939 34.6261 21.5388 34.2516 21.5388 33.8611C21.5388 33.4707 21.6939 33.0962 21.97 32.8201C22.2461 32.544 22.6206 32.3889 23.0111 32.3889H36.8058V8.83336C36.8058 8.05245 36.4956 7.30351 35.9434 6.75132C35.3912 6.19913 34.6422 5.88892 33.8613 5.88892Z" fill="white"/>
<path d="M41.4579 25.4399C41.1762 25.1988 40.814 25.0727 40.4434 25.087C40.0729 25.1013 39.7214 25.2549 39.4593 25.5171C39.1971 25.7793 39.0435 26.1308 39.0291 26.5013C39.0148 26.8719 39.1409 27.2341 39.3821 27.5158L44.3582 32.3888H36.8057V35.3333H44.3582L39.3821 40.4272C39.2279 40.5591 39.1028 40.7216 39.0144 40.9042C38.926 41.0869 38.8764 41.2858 38.8685 41.4886C38.8607 41.6913 38.8949 41.8935 38.9689 42.0824C39.0429 42.2713 39.1552 42.4429 39.2987 42.5864C39.4421 42.7299 39.6137 42.8421 39.8026 42.9162C39.9916 42.9902 40.1937 43.0243 40.3965 43.0165C40.5992 43.0087 40.7982 42.959 40.9808 42.8707C41.1635 42.7823 41.3259 42.6571 41.4579 42.503L50.0557 33.9641L41.4579 25.4399Z" fill="white"/>
</g>
<defs>
<clipPath id="clip0_603_1077">
<rect width="53" height="53" fill="white"/>
</clipPath>
</defs>
</svg>
