<svg width="14" height="15" viewBox="0 0 14 15" fill="none" xmlns="http://www.w3.org/2000/svg">
<g clip-path="url(#clip0_430_1855)">
<path d="M12.8331 6.96245C12.7819 6.96277 12.7312 6.95226 12.6838 6.93153C12.6364 6.91079 12.5933 6.88024 12.557 6.84162L7.66089 1.59162C7.59718 1.51191 7.56389 1.40938 7.56767 1.30452C7.57145 1.19965 7.61203 1.10018 7.68129 1.02597C7.75055 0.951764 7.84339 0.908292 7.94126 0.904241C8.03914 0.900191 8.13483 0.93586 8.20923 1.00412L13.1092 6.24995C13.1641 6.30823 13.2015 6.38269 13.2167 6.46384C13.2319 6.54498 13.2242 6.62914 13.1945 6.70557C13.1649 6.78201 13.1147 6.84726 13.0504 6.89301C12.986 6.93876 12.9104 6.96293 12.8331 6.96245Z" fill="white"/>
<path d="M7.94866 3.16248L5.30811 5.99164C4.60518 5.81006 3.87066 5.82342 3.17389 6.03047C2.47712 6.23751 1.8411 6.63141 1.32588 7.17497C1.28943 7.21371 1.2605 7.25979 1.24076 7.31057C1.22102 7.36134 1.21085 7.4158 1.21085 7.47081C1.21085 7.52581 1.22102 7.58027 1.24076 7.63105C1.2605 7.68182 1.28943 7.72791 1.32588 7.76664L3.78366 10.4166L0.890328 13.5041C0.849619 13.5415 0.816555 13.5875 0.793213 13.6392C0.76987 13.6908 0.756753 13.7472 0.754684 13.8045C0.752616 13.8619 0.76164 13.9191 0.781191 13.9726C0.800743 14.0261 0.830398 14.0746 0.868297 14.1152C0.906196 14.1559 0.951521 14.1876 1.00142 14.2086C1.05133 14.2295 1.10474 14.2392 1.15829 14.237C1.21185 14.2348 1.2644 14.2207 1.31265 14.1957C1.3609 14.1707 1.4038 14.1353 1.43866 14.0916L4.33199 10.9916L6.79366 13.6291C6.83 13.6678 6.87309 13.6983 6.92048 13.719C6.96786 13.7398 7.01859 13.7503 7.06977 13.75C7.12123 13.7497 7.17212 13.7386 7.21952 13.7171C7.26692 13.6957 7.30987 13.6643 7.34588 13.625C7.85135 13.0716 8.21774 12.3901 8.41088 11.644C8.60401 10.8979 8.61758 10.1115 8.45033 9.35831L11.0909 6.52914L7.94866 3.16248Z" fill="white"/>
</g>
<defs>
<clipPath id="clip0_430_1855">
<rect width="14" height="15" fill="white"/>
</clipPath>
</defs>
</svg>
