<svg width="24" height="24" viewBox="0 0 24 24" fill="none" xmlns="http://www.w3.org/2000/svg">
<path d="M11.6273 5.63976C11.4946 5.63976 11.3784 5.59042 11.2787 5.49175C11.1782 5.39388 11.1279 5.27943 11.1279 5.1484V3.81988C11.1279 3.31274 11.3079 2.88284 11.6681 2.53019C12.0282 2.17673 12.4662 2 12.9821 2H14.3382C14.4709 2 14.5871 2.04893 14.6868 2.1468C14.7865 2.24548 14.8364 2.35993 14.8364 2.49015V3.81988C14.8364 4.32702 14.6567 4.75732 14.2974 5.11078C13.9381 5.46425 13.4997 5.64057 12.9821 5.63976H11.6273ZM5.09043 11.706C4.2284 11.706 3.49783 11.4116 2.8987 10.8228C2.29956 10.2348 2 9.51773 2 8.67169V6.61886C2 6.33738 2.09477 6.10363 2.28432 5.9176C2.47387 5.73157 2.71162 5.63855 2.99759 5.63855H5.09043C5.95245 5.63855 6.68302 5.93256 7.28216 6.52059C7.88129 7.10861 8.18085 7.82564 8.18085 8.67169V10.7245C8.18085 11.006 8.08608 11.2397 7.89653 11.4258C7.70699 11.6118 7.46882 11.7052 7.18203 11.706H5.09043ZM15.8352 21.3878C15.0952 21.3878 14.391 21.2665 13.7226 21.0238C13.0551 20.7812 12.4543 20.4475 11.9203 20.0229L10.0907 21.8173C9.97536 21.9305 9.83361 21.9912 9.66549 21.9993C9.49737 22.0074 9.3478 21.9467 9.21676 21.8173C9.08573 21.6879 9.02392 21.5411 9.03134 21.3769C9.03875 21.2127 9.10056 21.0732 9.21676 20.9583L11.0451 19.1639C10.6124 18.6398 10.2725 18.0501 10.0252 17.395C9.77798 16.739 9.65437 16.0479 9.65437 15.3215C9.65437 13.6416 10.2568 12.2095 11.4616 11.0254C12.6657 9.84045 14.1235 9.24798 15.8352 9.24798H20.7156C21.0782 9.24798 21.3831 9.36931 21.6304 9.61196C21.8776 9.85461 22.0008 10.1535 22 10.5086V15.3215C22 17.0015 21.4005 18.4327 20.2014 19.6152C19.0023 20.7978 17.5469 21.3886 15.8352 21.3878ZM12.6397 18.4578C12.7716 18.5872 12.9174 18.6519 13.0773 18.6519C13.2372 18.6519 13.3831 18.5872 13.5149 18.4578L16.2716 15.751C16.4034 15.6216 16.4694 15.4784 16.4694 15.3215C16.4694 15.1646 16.4034 15.0215 16.2716 14.892C16.1397 14.7626 15.9943 14.6979 15.8352 14.6979C15.6762 14.6979 15.5303 14.7626 15.3976 14.892L12.641 17.5988C12.5091 17.7282 12.4432 17.8714 12.4432 18.0283C12.4432 18.1852 12.5091 18.328 12.641 18.4566" fill="white"/>
</svg>
