<svg width="15" height="22" viewBox="0 0 15 22" fill="none" xmlns="http://www.w3.org/2000/svg">
<path d="M10.8333 15.5833C11.0543 15.5833 11.2663 15.6799 11.4226 15.8518C11.5789 16.0237 11.6667 16.2569 11.6667 16.5C11.6667 16.7431 11.5789 16.9763 11.4226 17.1482C11.2663 17.3201 11.0543 17.4167 10.8333 17.4167H9.99999C9.77898 17.4167 9.56702 17.3201 9.41074 17.1482C9.25446 16.9763 9.16666 16.7431 9.16666 16.5C9.16666 16.2569 9.25446 16.0237 9.41074 15.8518C9.56702 15.6799 9.77898 15.5833 9.99999 15.5833H10.8333ZM9.16666 13.75C8.94564 13.75 8.73368 13.6534 8.5774 13.4815C8.42112 13.3096 8.33333 13.0765 8.33333 12.8333V11.9167H6.66666V12.8333C6.66666 13.0765 6.57886 13.3096 6.42258 13.4815C6.2663 13.6534 6.05434 13.75 5.83333 13.75C5.61231 13.75 5.40035 13.6534 5.24407 13.4815C5.08779 13.3096 5 13.0765 5 12.8333V9.16668C5 8.43733 5.26339 7.73786 5.73223 7.22213C6.20107 6.70641 6.83695 6.41668 7.49999 6.41668C8.16303 6.41668 8.79892 6.70641 9.26776 7.22213C9.7366 7.73786 9.99999 8.43733 9.99999 9.16668V12.8333C9.99999 13.0765 9.91219 13.3096 9.75591 13.4815C9.59963 13.6534 9.38767 13.75 9.16666 13.75ZM8.33333 10.0833V9.16668C8.33333 8.92356 8.24553 8.6904 8.08925 8.51849C7.93297 8.34659 7.72101 8.25001 7.49999 8.25001C7.27898 8.25001 7.06702 8.34659 6.91074 8.51849C6.75446 8.6904 6.66666 8.92356 6.66666 9.16668V10.0833H8.33333ZM6.90749 14.9417L5.56416 16.4358C5.52654 16.4775 5.47583 16.5016 5.42249 16.5033C5.36915 16.505 5.31726 16.4841 5.27749 16.445L4.76416 15.8583C4.60945 15.684 4.39813 15.5845 4.17668 15.5815C3.95523 15.5786 3.7418 15.6726 3.58333 15.8428C3.42486 16.0129 3.33435 16.2454 3.33169 16.489C3.32903 16.7326 3.41445 16.9674 3.56916 17.1417L4.09083 17.732C4.44314 18.1188 4.92057 18.336 5.41833 18.336C5.91609 18.336 6.39352 18.1188 6.74583 17.732L8.09249 16.225C8.23036 16.0488 8.30221 15.8215 8.29349 15.5892C8.28477 15.3569 8.19612 15.137 8.04551 14.9738C7.8949 14.8107 7.69356 14.7167 7.48227 14.7107C7.27098 14.7047 7.06552 14.7873 6.90749 14.9417ZM15 6.10226V17.4167C14.9987 18.6318 14.5593 19.7967 13.7781 20.656C12.997 21.5152 11.938 21.9985 10.8333 22H4.16666C3.062 21.9985 2.00296 21.5152 1.22185 20.656C0.440735 19.7967 0.00132321 18.6318 0 17.4167V4.58334C0.00132321 3.36822 0.440735 2.20327 1.22185 1.34405C2.00296 0.484823 3.062 0.00147061 4.16666 1.50729e-05H9.45249C9.99997 -0.00153416 10.5423 0.116356 11.0481 0.346866C11.5539 0.577375 12.0131 0.915926 12.3992 1.34293L13.7792 2.86093C14.1673 3.2856 14.4751 3.79074 14.6847 4.34711C14.8942 4.90348 15.0014 5.50003 15 6.10226ZM11.2208 2.6391C11.1024 2.50953 10.9726 2.39316 10.8333 2.29168V4.58334H12.9167C12.8241 4.43012 12.7181 4.28734 12.6 4.15709L11.2208 2.6391ZM13.3333 6.41668H10.8333C10.3913 6.41668 9.96737 6.22352 9.65481 5.87971C9.34225 5.53589 9.16666 5.06957 9.16666 4.58334V1.83335H4.16666C3.50362 1.83335 2.86774 2.12308 2.3989 2.6388C1.93006 3.15453 1.66667 3.854 1.66667 4.58334V17.4167C1.66667 18.146 1.93006 18.8455 2.3989 19.3612C2.86774 19.8769 3.50362 20.1667 4.16666 20.1667H10.8333C11.4964 20.1667 12.1322 19.8769 12.6011 19.3612C13.0699 18.8455 13.3333 18.146 13.3333 17.4167V6.41668Z" fill="white"/>
</svg>
