<svg width="17" height="17" viewBox="0 0 17 17" fill="none" xmlns="http://www.w3.org/2000/svg">
<g clip-path="url(#clip0_1096_1540)">
<path fill-rule="evenodd" clip-rule="evenodd" d="M0.527685 2.98653C0.596476 2.86253 0.700483 2.76171 0.826561 2.6968C0.952639 2.6319 1.09513 2.60582 1.23602 2.62188L15.5744 4.27216C15.7069 4.28723 15.8326 4.33895 15.9373 4.4215C16.042 4.50405 16.1217 4.61415 16.1673 4.73946C16.2129 4.86476 16.2226 5.0003 16.1955 5.13085C16.1683 5.2614 16.1053 5.38179 16.0135 5.4785L6.09022 15.9591C5.99269 16.0621 5.86678 16.1339 5.72843 16.1654C5.59007 16.1969 5.44548 16.1866 5.31296 16.1359C5.18044 16.0852 5.06594 15.9963 4.98395 15.8805C4.90196 15.7647 4.85617 15.6272 4.85237 15.4853L4.69421 9.6784L8.3247 8.35705C8.50344 8.29199 8.64902 8.1586 8.72941 7.98621C8.80979 7.81383 8.81841 7.61657 8.75335 7.43783C8.6883 7.25909 8.55491 7.11351 8.38252 7.03313C8.21013 6.95274 8.01287 6.94412 7.83413 7.00918L4.20364 8.33053L0.591574 3.78068C0.503551 3.66955 0.450438 3.53482 0.438947 3.39352C0.427456 3.25221 0.458774 3.11043 0.527685 2.98653Z" fill="white"/>
</g>
<defs>
<clipPath id="clip0_1096_1540">
<rect width="17" height="17" fill="white"/>
</clipPath>
</defs>
</svg>
