<svg width="17" height="19" viewBox="0 0 17 19" fill="none" xmlns="http://www.w3.org/2000/svg">
<path d="M0.318191 14.132C0.969364 15.2591 2.41345 15.6463 3.54361 14.9969C3.54439 14.9965 3.54513 14.996 3.5459 14.9956L3.89621 14.7938C4.5575 15.358 5.31761 15.7956 6.13827 16.0845V16.4873C6.13827 17.7881 7.19566 18.8426 8.5 18.8426C9.80434 18.8426 10.8617 17.7881 10.8617 16.4873V16.0845C11.6825 15.7952 12.4427 15.3571 13.1038 14.7922L13.4557 14.9948C14.5861 15.6452 16.0312 15.2586 16.6834 14.1312C17.3356 13.0038 16.9479 11.5626 15.8174 10.9122L15.4679 10.7112C15.6252 9.85739 15.6252 8.98209 15.4679 8.12821L15.8174 7.92723C16.9478 7.27683 17.3356 5.83566 16.6834 4.70827C16.0312 3.58091 14.5861 3.19423 13.4557 3.84463L13.1054 4.04642C12.4434 3.48287 11.6828 3.0461 10.8617 2.75809V2.35533C10.8617 1.05453 9.80434 0 8.5 0C7.19566 0 6.13827 1.05453 6.13827 2.35533V2.75809C5.31749 3.04747 4.55735 3.48556 3.89621 4.05039L3.54431 3.84706C2.41386 3.19662 0.968774 3.5833 0.316604 4.71066C-0.335565 5.83802 0.0521274 7.27922 1.18258 7.92962L1.53212 8.1306C1.37477 8.98444 1.37477 9.85974 1.53212 10.7136L1.18258 10.9146C0.0552641 11.5667 -0.331174 13.0051 0.318191 14.132ZM8.5 6.28089C10.2391 6.28089 11.649 7.68691 11.649 9.42132C11.649 11.1557 10.2391 12.5617 8.5 12.5617C6.76088 12.5617 5.35104 11.1557 5.35104 9.42132C5.35104 7.68691 6.76088 6.28089 8.5 6.28089Z" fill="white"/>
</svg>
